<svg version="1.1" xmlns="http://www.w3.org/2000/svg" style="display: block;" viewBox="0 0 2048 2048" width="1024" height="1024" preserveAspectRatio="none">
<defs>
	<linearGradient id="Gradient1" gradientUnits="userSpaceOnUse" x1="1376.89" y1="382.251" x2="1359.11" y2="370.749">
		<stop class="stop0" offset="0" stop-opacity="1" stop-color="rgb(16,37,58)"/>
		<stop class="stop1" offset="1" stop-opacity="1" stop-color="rgb(54,65,78)"/>
	</linearGradient>
</defs>
<path transform="translate(0,0)" fill="rgb(28,40,56)" d="M 1265.27 452.31 C 1293.13 395.356 1317.38 335.619 1345.29 278.563 C 1347.96 273.099 1353.48 259.863 1358.64 257.077 C 1361.14 262.046 1352.71 281.943 1350.44 287.938 L 1357.88 291.124 C 1358.59 295.748 1357.68 293.805 1360.44 297.299 L 1362.76 297.638 C 1364.85 296.014 1364.79 296.188 1365.93 293.815 C 1369.36 294.974 1371.51 296.061 1375.1 295.683 C 1376.47 299.667 1375.94 300.412 1380.63 301.558 C 1382.99 304.977 1383.69 304.769 1387.45 306.209 L 1389.03 306.832 C 1389.37 306.958 1389.71 307.084 1390.05 307.21 C 1386.79 315.143 1383.76 322.302 1381.2 330.52 C 1383.09 338.4 1379.75 342.608 1381.75 345.499 L 1383.48 344.589 C 1376.28 367.779 1366.84 391.626 1358.96 414.794 C 1349.26 442.406 1313.9 540.424 1319.22 562.724 C 1331.3 613.256 1352.04 702.426 1368.45 751.297 C 1385.99 743.659 1403.73 736.469 1421.65 729.734 C 1484.23 705.816 1546.69 685.735 1563.56 773.283 C 1588.92 768.151 1615.76 765.681 1641.62 765.067 C 1666.46 764.477 1844.96 772.53 1858.23 779.942 C 1859.5 780.652 1859.57 780.809 1860.46 781.693 C 1863.06 802.644 1775.8 970.53 1759.57 998.279 C 1747.1 1019.68 1733.25 1040.24 1718.09 1059.83 C 1647.68 1150.3 1534.31 1212.25 1439.38 1274.84 C 1431.37 1321.64 1420.84 1368.36 1411.86 1415 C 1409.55 1426.99 1407.23 1439.87 1404.25 1451.61 C 1393.25 1461.98 1374.67 1475.24 1362.16 1484.67 L 1290.61 1538.24 L 1215.12 1594.55 C 1201.59 1604.67 1187.93 1615.03 1174.17 1624.84 C 1171.29 1626.9 1167.8 1629.11 1164.29 1628.91 C 1162.06 1628.79 1162.15 1628.27 1159.87 1626.8 C 1155.82 1618.38 1188.6 1447.31 1192.26 1420 C 1146.54 1349.91 1101.5 1279.38 1057.14 1208.42 C 1038.99 1179.37 1008.64 1133.26 993.512 1103.39 C 977.015 1101.3 957.909 1096.9 941.369 1093.74 L 864.627 1079.17 C 846.657 1075.62 752.953 1059.15 743.55 1052.36 C 743.054 1049.32 742.676 1049.12 743.879 1046.41 C 754.225 1037.3 795.183 1017.47 809.482 1010.07 L 946.662 939.657 L 1016.07 904.127 C 1024.21 899.97 1039.18 891.495 1047.15 888.335 C 1067.77 890.656 1114.59 903.554 1136.39 908.875 L 1195.02 923.248 C 1206.29 926.03 1222.3 929.647 1233.12 933.544 C 1250.77 920.432 1271.48 908.93 1287.9 896.364 C 1269.67 891.951 1252.72 883.833 1243.74 866.304 C 1215.72 811.567 1219.66 742.659 1212.49 682.459 C 1207.09 637.103 1215.47 618.826 1170.63 592.38 C 1140.96 574.884 1110.74 559.812 1080.14 543.982 L 937.256 469.682 C 921.398 461.445 904.393 453.356 888.743 444.65 C 885.622 442.913 884.752 441.573 884.059 438.67 L 885.169 437.181 C 891.805 436.254 915.017 448.246 921.363 452.128 L 924.733 444.491 C 928.238 444.094 927.096 444.705 929.655 442.772 L 929.846 440.073 C 931.314 434.223 931.8 433.06 934.6 427.703 L 936.587 425.34 L 936.198 422.877 C 932.854 418.902 928.552 417.03 923.947 414.461 L 925.026 400.949 C 918.306 397.308 905.767 391.96 901.843 385.99 L 902.242 384.408 C 910.001 381.366 926.892 391.704 934.46 395.333 C 950.934 403.26 967.319 411.371 983.611 419.665 L 1113.22 485.441 C 1132.53 495.318 1153.55 507.243 1172.96 516.303 C 1171.58 510.614 1170.25 505.483 1169.72 499.593 C 1165.66 454.387 1212.78 428.83 1251.48 444.892 C 1256.7 447.058 1260.42 449.316 1265.27 452.31 z"/>
<path transform="translate(0,0)" fill="rgb(251,245,221)" d="M 1265.27 452.31 C 1293.13 395.356 1317.38 335.619 1345.29 278.563 C 1347.96 273.099 1353.48 259.863 1358.64 257.077 C 1361.14 262.046 1352.71 281.943 1350.44 287.938 L 1357.88 291.124 C 1358.59 295.748 1357.68 293.805 1360.44 297.299 L 1362.76 297.638 C 1364.85 296.014 1364.79 296.188 1365.93 293.815 C 1369.36 294.974 1371.51 296.061 1375.1 295.683 C 1376.47 299.667 1375.94 300.412 1380.63 301.558 C 1382.99 304.977 1383.69 304.769 1387.45 306.209 L 1389.03 306.832 C 1389.37 306.958 1389.71 307.084 1390.05 307.21 C 1386.79 315.143 1383.76 322.302 1381.2 330.52 C 1383.09 338.4 1379.75 342.608 1381.75 345.499 L 1383.48 344.589 C 1376.28 367.779 1366.84 391.626 1358.96 414.794 L 1355.44 411.884 C 1353.71 413.013 1352.29 414.059 1350.62 415.293 C 1338.13 447.141 1312.29 522.809 1310.68 554.535 C 1310.29 562.109 1311.01 569.604 1312.44 577.043 C 1318.46 608.343 1328.54 639.716 1336.8 670.541 C 1344.81 700.415 1351.54 731.845 1361.67 760.999 C 1369.16 758.532 1375.02 756.455 1382.3 753.443 L 1383 756.038 C 1366.27 762.239 1349.42 772.206 1333.01 779.47 C 1325.51 782.793 1307.73 788.536 1306.25 797.106 C 1312.89 799.555 1337.93 786.209 1345.77 782.564 C 1362.64 774.738 1379.58 767.05 1396.58 759.501 C 1405.76 755.433 1419.53 749.401 1428.98 747.112 C 1439.14 744.591 1449.71 744.201 1460.02 745.967 C 1475.15 748.792 1488.63 757.264 1497.74 769.663 C 1545.61 833.633 1481.76 937.938 1515.74 984.625 C 1531.14 1005.79 1562.07 1006.24 1585.67 1009.59 C 1552.63 1031.16 1514.15 1056.39 1480.18 1076.26 C 1468.03 1018.72 1453.84 960.677 1441.28 903.16 C 1439.01 892.745 1426.32 836.052 1423.25 829.592 C 1421.71 828.761 1419.71 827.397 1417.75 828.65 C 1406.16 836.09 1393.15 842.905 1380.86 849.145 C 1356.6 860.548 1329.74 878.977 1303.64 885.315 C 1260.94 895.685 1242.31 853.4 1236.12 820.156 C 1227.03 771.353 1225.06 724.949 1220.69 675.904 C 1218.49 651.219 1218.83 620.204 1198.57 602.252 C 1168.46 577.783 1127.38 558.779 1092.8 541.054 L 987.697 486.624 C 966.714 475.806 941.59 463.656 921.363 452.128 L 924.733 444.491 C 928.238 444.094 927.096 444.705 929.655 442.772 L 929.846 440.073 C 931.314 434.223 931.8 433.06 934.6 427.703 L 936.587 425.34 L 936.198 422.877 C 932.854 418.902 928.552 417.03 923.947 414.461 L 925.026 400.949 C 918.306 397.308 905.767 391.96 901.843 385.99 L 902.242 384.408 C 910.001 381.366 926.892 391.704 934.46 395.333 C 950.934 403.26 967.319 411.371 983.611 419.665 L 1113.22 485.441 C 1132.53 495.318 1153.55 507.243 1172.96 516.303 C 1171.58 510.614 1170.25 505.483 1169.72 499.593 C 1165.66 454.387 1212.78 428.83 1251.48 444.892 C 1256.7 447.058 1260.42 449.316 1265.27 452.31 z"/>
<path transform="translate(0,0)" fill="rgb(28,40,56)" d="M 1265.27 452.31 C 1293.13 395.356 1317.38 335.619 1345.29 278.563 C 1347.96 273.099 1353.48 259.863 1358.64 257.077 C 1361.14 262.046 1352.71 281.943 1350.44 287.938 C 1348.11 290.683 1330.5 331.279 1327.71 337.322 C 1309.47 376.841 1292.16 418.105 1272.85 457.082 C 1288.5 472.821 1297.97 488.443 1297.99 511.27 C 1298 520.044 1294.19 545.618 1283.11 546.117 C 1281.34 544.2 1281.49 544.921 1281.59 541.886 C 1281.84 534.501 1285.94 527.422 1287.39 520.397 C 1290.99 502.913 1284.06 483.06 1272.2 470.098 C 1251.6 447.572 1215.22 440.753 1191.59 463.266 C 1182.35 472.034 1177.2 484.271 1177.39 497.009 C 1177.46 505.155 1179.42 512.018 1182 519.664 L 1183.24 520.466 C 1196.58 528.942 1244.55 550.252 1251.4 557.578 C 1251.65 561.17 1251.92 559.382 1249.82 562.956 C 1244.88 564.931 1224.15 552.696 1218.66 549.878 L 1169.75 524.785 L 1013.36 445.364 C 988.134 432.502 950.209 411.676 925.026 400.949 C 918.306 397.308 905.767 391.96 901.843 385.99 L 902.242 384.408 C 910.001 381.366 926.892 391.704 934.46 395.333 C 950.934 403.26 967.319 411.371 983.611 419.665 L 1113.22 485.441 C 1132.53 495.318 1153.55 507.243 1172.96 516.303 C 1171.58 510.614 1170.25 505.483 1169.72 499.593 C 1165.66 454.387 1212.78 428.83 1251.48 444.892 C 1256.7 447.058 1260.42 449.316 1265.27 452.31 z"/>
<path transform="translate(0,0)" fill="url(#Gradient1)" d="M 1350.62 415.293 C 1357.93 391.302 1371.8 353.884 1381.2 330.52 C 1383.09 338.4 1379.75 342.608 1381.75 345.499 L 1383.48 344.589 C 1376.28 367.779 1366.84 391.626 1358.96 414.794 L 1355.44 411.884 C 1353.71 413.013 1352.29 414.059 1350.62 415.293 z"/>
<path transform="translate(0,0)" fill="rgb(28,40,56)" d="M 1260.92 494.87 C 1263.85 494.917 1262.49 494.549 1265.09 496.244 L 1265.49 498.53 C 1260.32 511.647 1236.96 512.129 1225.16 509.395 C 1221.57 507.989 1219.39 507.141 1218.46 503.131 C 1223.52 498.38 1236.71 503.346 1245.26 501.264 C 1253.43 499.276 1253.61 498.896 1260.92 494.87 z"/>
<path transform="translate(0,0)" fill="rgb(43,61,64)" d="M 1222.1 473.519 C 1230.67 473.619 1237.32 478.823 1235.42 487.875 C 1226.56 488.077 1221.3 482.372 1222.1 473.519 z"/>
<path transform="translate(0,0)" fill="rgb(28,40,56)" d="M 1242.84 459.584 C 1249.72 463.005 1255.58 467.69 1250.06 475.211 C 1245.47 472.655 1241.57 470.505 1239.85 465.477 C 1240.26 461.581 1239.88 462.986 1242.84 459.584 z"/>
<path transform="translate(0,0)" fill="rgb(251,245,221)" d="M 1421.4 738.167 C 1463.5 723.802 1529.45 693.688 1549.99 754.96 C 1552.15 761.391 1553.7 767.881 1555.19 774.493 C 1541 776.873 1529.72 779.679 1515.99 783.956 C 1506.07 762.804 1496.54 748.985 1473.6 739.943 C 1459.1 734.23 1437.68 734.712 1423.18 740.323 L 1421.4 738.167 z"/>
<path transform="translate(0,0)" fill="rgb(140,151,162)" d="M 1382.3 753.443 C 1394.87 748.407 1408.72 742.558 1421.4 738.167 L 1423.18 740.323 C 1407.98 745.364 1397.68 749.905 1383 756.038 L 1382.3 753.443 z"/>
<path transform="translate(0,0)" fill="rgb(137,204,210)" d="M 1630.56 775.426 C 1637.89 774.828 1648.9 775.007 1656.51 774.892 C 1672.27 806.341 1688.22 833.773 1706.01 864.151 C 1725.69 898.208 1746.51 931.593 1768.44 964.249 C 1705.26 1083.7 1640.67 1131.59 1530.59 1205.02 C 1450.82 1257.25 1369.79 1307.52 1287.56 1355.77 C 1269.74 1324.11 1249.69 1292.33 1230.55 1261.44 C 1257.2 1245.59 1285.44 1227.78 1312.24 1212.73 C 1320.25 1218.56 1327.66 1222.58 1338.18 1221.08 C 1345.76 1219.96 1352.55 1215.79 1356.96 1209.52 C 1361.55 1203.21 1363.42 1195.32 1362.14 1187.62 C 1361.04 1180.72 1357.19 1174.57 1351.48 1170.56 C 1345 1165.98 1336.89 1163.84 1329.02 1165.23 C 1321.26 1166.61 1314.45 1171.19 1310.24 1177.85 C 1304.89 1186.13 1305.32 1194.6 1307.36 1203.76 C 1280.15 1220.16 1253.03 1236.71 1225.99 1253.4 C 1213.23 1233.91 1199.48 1209.44 1187.58 1189.2 C 1219.4 1168.78 1250.71 1147.43 1282.43 1126.85 C 1286.36 1124.31 1289.99 1121.76 1293.68 1118.88 C 1286.11 1100.9 1266.55 1065.77 1256.84 1046.8 C 1275.29 1035.21 1293.58 1023.35 1311.7 1011.23 C 1315.29 1017.56 1319.48 1024.05 1323.49 1030.15 C 1356.69 1080.64 1389.25 1132.08 1423.31 1181.95 C 1411.21 1201.48 1417.15 1218.41 1438.64 1226.25 C 1443.86 1226.83 1447.35 1226.81 1452.49 1225.28 C 1459.29 1223.32 1464.95 1218.61 1468.11 1212.28 C 1471.56 1205.45 1472.04 1197.51 1469.44 1190.31 C 1463.07 1172.76 1446.68 1169.83 1430.79 1176.2 C 1422.11 1162.84 1413.54 1149.41 1405.07 1135.91 C 1420.98 1125.37 1438.16 1115.01 1454.4 1104.86 C 1462.89 1118.48 1476.69 1141.75 1486.4 1153.26 C 1500.17 1147.08 1519.56 1134.42 1533.05 1126.54 C 1564.32 1108.27 1595.19 1088.64 1626.75 1070.85 C 1633.43 1076.62 1640.5 1080.71 1649.89 1079.53 C 1674.04 1076.52 1680.73 1041.93 1660.61 1028.83 C 1649.34 1021.5 1631.11 1027.25 1624.23 1038.26 C 1619.05 1046.53 1619.41 1054.06 1621.37 1063.19 C 1578.6 1087.01 1530.96 1116.49 1488.93 1142.1 C 1479.95 1128.2 1470.54 1114.32 1461.36 1100.53 C 1479.66 1088.27 1500.85 1075.55 1519.64 1063.59 L 1619.89 999.515 C 1640.26 986.614 1662.39 973.315 1682.13 959.698 C 1715.7 990.79 1748.58 934.654 1718.09 916.742 C 1696.27 903.921 1668.42 923.028 1677.29 951.797 L 1641.23 974.438 C 1627.97 950.581 1608.31 916.979 1593.57 894.136 C 1614.17 872.368 1600.42 838.616 1571.35 842.682 C 1562.8 843.923 1555.15 848.663 1550.23 855.767 C 1545.86 862.095 1544.36 869.975 1546.1 877.467 C 1550.66 897.221 1567.12 902.984 1585.51 898.538 C 1599.74 924.392 1618.05 954.109 1633.75 979.294 C 1621.59 986.198 1609.7 994.961 1597.28 1001.86 C 1577.77 996.994 1553.64 998.55 1535.43 989.202 C 1506.75 973.622 1516.56 927.544 1519.76 901.39 C 1524.4 863.371 1531.09 831.28 1519.18 793.76 C 1557.01 782.151 1591.39 777.955 1630.56 775.426 z"/>
<path transform="translate(0,0)" fill="rgb(137,204,210)" d="M 1415.83 840.855 L 1417.82 841.534 C 1429.4 895.323 1441.31 949.043 1453.53 1002.69 C 1459.35 1028.38 1465.1 1057.05 1471.99 1082.26 C 1447.99 1097.73 1423.78 1112.87 1399.38 1127.7 C 1391.97 1114.85 1380.31 1098.44 1371.83 1085.65 L 1319.24 1006.13 L 1385.84 961.852 C 1398.57 972.763 1417.12 969.802 1425.66 955.327 C 1429.61 948.749 1430.63 940.82 1428.47 933.457 C 1419.29 902.713 1364.99 913.507 1379.8 954.671 C 1356.63 969.644 1333.6 984.824 1310.71 1000.21 C 1289.96 1013.86 1265.6 1029.33 1245.82 1043.91 C 1253.26 1062.15 1268.19 1089.37 1277.45 1107.51 C 1279.36 1110.74 1280.16 1112.46 1281.67 1115.91 C 1248.45 1137.14 1215.55 1158.86 1182.98 1181.07 C 1169.81 1162.88 1149.49 1126.37 1136.66 1105.49 C 1149.39 1096.66 1162.77 1089.01 1175.35 1079.81 C 1189.92 1088.97 1207.39 1091.65 1217.53 1076.31 C 1248.18 1029.92 1154.47 1014.5 1171.22 1071.87 C 1159.3 1078.8 1144.1 1089.66 1132.33 1097.59 C 1120.2 1079.62 1107.85 1057.78 1096.1 1039.05 C 1136.86 1008.54 1184.16 978.788 1226.21 949.562 C 1251.97 931.661 1279.31 912.974 1305.86 896.25 C 1314.54 890.782 1334.64 883.539 1345.35 878.049 C 1368.97 865.941 1392.61 853.747 1415.83 840.855 z"/>
<path transform="translate(0,0)" fill="rgb(37,65,93)" d="M 1046.95 899.069 C 1056.5 897.236 1196.2 934.139 1222.04 939.097 C 1160.12 984.093 1093.9 1025.34 1031.78 1070.41 C 1020.23 1078.79 1007.87 1088.53 995.225 1094.97 C 977.949 1091.41 960.607 1088.17 943.209 1085.27 C 936.415 1083.57 928.939 1081.88 922.068 1080.57 C 867.388 1070.14 812.367 1058.24 757.53 1049.04 C 761.815 1046.35 766.378 1044.54 770.779 1042.16 C 805.216 1023.53 840.295 1006.17 875.07 988.166 L 979.725 934.005 C 1001.39 922.661 1024.99 909.356 1046.95 899.069 z"/>
<path transform="translate(0,0)" fill="rgb(137,204,210)" d="M 1088.51 1043.89 C 1090.45 1046.12 1101.55 1065.34 1103.68 1068.94 L 1139.15 1128.72 C 1185.2 1206.54 1232.02 1283.9 1279.59 1360.8 C 1270.17 1366.93 1201.78 1410.04 1197.65 1410.39 C 1186.86 1395.61 1173.32 1373.13 1163.24 1357.28 L 1107.21 1268.94 C 1073.09 1214.5 1035.37 1157.79 1003.28 1102.48 C 1031.86 1083.2 1060.28 1063.67 1088.51 1043.89 z"/>
<path transform="translate(0,0)" fill="rgb(37,65,93)" d="M 1428.06 1283.32 L 1428.47 1284.04 C 1427.23 1295.79 1422.97 1309.12 1420.77 1320.98 C 1414.89 1352.74 1407.71 1384.25 1401.86 1416.02 C 1399.96 1426.34 1398.26 1437.19 1395.3 1447.22 C 1389.18 1453.94 1374.96 1463.66 1367.09 1469.48 L 1312.12 1509.89 C 1265.27 1544.23 1218.57 1580.4 1171.67 1614.22 C 1171.24 1613.65 1170.82 1613.09 1170.39 1612.52 C 1175.8 1572.34 1197.49 1455.48 1199.34 1422.67 C 1206.7 1416.86 1230.61 1404.08 1240.57 1397.81 C 1302.28 1358.99 1366.37 1322.09 1428.06 1283.32 z"/>
<path transform="translate(0,0)" fill="rgb(37,65,93)" d="M 1666.88 775.094 C 1674.73 774.654 1687.69 775.767 1696.04 776.232 C 1714.95 777.228 1733.84 778.481 1752.72 779.989 C 1785.03 782.431 1818.72 783.741 1850.86 787.111 C 1844.89 805.289 1837.22 820.603 1829.65 838.042 C 1820.02 860.212 1809.52 881.765 1799 903.52 C 1791.2 919.947 1782.05 937.107 1773.75 953.42 C 1742.43 908.74 1712.22 852.656 1684.28 805.158 C 1679.81 797.56 1669.12 781.941 1666.88 775.094 z"/>
<path transform="translate(0,0)" fill="rgb(251,245,221)" d="M 1569.76 852.53 C 1576.59 850.715 1583.86 852.72 1588.8 857.775 C 1593.74 862.83 1595.57 870.153 1593.6 876.939 C 1591.63 883.725 1586.15 888.922 1579.27 890.54 C 1568.84 892.993 1558.38 886.617 1555.78 876.225 C 1553.18 865.834 1559.4 855.28 1569.76 852.53 z"/>
<path transform="translate(0,0)" fill="rgb(251,245,221)" d="M 1330.33 1174.73 C 1340.38 1172.57 1350.3 1178.92 1352.55 1188.96 C 1354.8 1198.99 1348.54 1208.97 1338.52 1211.31 C 1328.38 1213.67 1318.25 1207.32 1315.97 1197.15 C 1313.69 1186.99 1320.14 1176.92 1330.33 1174.73 z"/>
<path transform="translate(0,0)" fill="rgb(251,245,221)" d="M 1700.33 922.431 C 1709.99 921.166 1718.93 927.744 1720.6 937.345 C 1722.27 946.946 1716.07 956.154 1706.54 958.219 C 1700.02 959.634 1693.25 957.36 1688.9 952.296 C 1684.55 947.231 1683.33 940.191 1685.71 933.957 C 1688.1 927.723 1693.71 923.299 1700.33 922.431 z"/>
<path transform="translate(0,0)" fill="rgb(251,245,221)" d="M 1194.74 1042.51 C 1204.59 1041.75 1213.19 1049.12 1213.96 1058.97 C 1214.72 1068.82 1207.36 1077.43 1197.51 1078.21 C 1187.65 1078.98 1179.02 1071.61 1178.26 1061.74 C 1177.49 1051.88 1184.88 1043.26 1194.74 1042.51 z"/>
<path transform="translate(0,0)" fill="rgb(251,245,221)" d="M 1440.39 1182.48 C 1449.71 1180.25 1459.08 1185.92 1461.44 1195.2 C 1463.79 1204.49 1458.25 1213.94 1449 1216.42 C 1442.9 1218.05 1436.4 1216.28 1431.98 1211.78 C 1427.56 1207.27 1425.9 1200.74 1427.64 1194.68 C 1429.38 1188.61 1434.25 1183.95 1440.39 1182.48 z"/>
<path transform="translate(0,0)" fill="rgb(251,245,221)" d="M 1643.1 1035.51 C 1649.19 1034.3 1655.46 1036.44 1659.53 1041.13 C 1663.59 1045.82 1664.83 1052.33 1662.76 1058.19 C 1660.69 1064.04 1655.63 1068.33 1649.52 1069.42 C 1640.21 1071.08 1631.3 1064.93 1629.54 1055.64 C 1627.78 1046.35 1633.83 1037.37 1643.1 1035.51 z"/>
<path transform="translate(0,0)" fill="rgb(251,245,221)" d="M 1398.34 925.694 C 1407.24 923.03 1416.63 928.014 1419.41 936.878 C 1422.19 945.742 1417.33 955.197 1408.5 958.096 C 1402.69 960.007 1396.3 958.64 1391.77 954.519 C 1387.25 950.398 1385.29 944.16 1386.65 938.192 C 1388.01 932.224 1392.47 927.449 1398.34 925.694 z"/>
<path transform="translate(0,0)" fill="rgb(28,40,56)" d="M 928.444 1193.42 C 951.901 1190.84 979.33 1197.87 999.761 1209.32 C 1036.21 1229.74 1069.14 1271.22 1080.08 1311.65 C 1088.63 1343.24 1085.96 1371.85 1069.31 1400.19 C 1037.11 1455 942.793 1521.66 888.992 1556.73 C 879.7 1562.79 864.902 1575.78 853.898 1577.49 C 851.289 1577.9 850.989 1577.55 849.054 1576.05 C 848.027 1567.62 876.876 1522.78 882.965 1511.96 C 874.27 1516.25 861.632 1524.1 852.994 1529.18 C 832.948 1540.92 813.062 1552.92 793.342 1565.2 C 728.79 1605.25 665.154 1646.75 602.484 1689.68 C 593.446 1695.77 537.812 1734.91 532.451 1735.25 C 529.949 1733.6 530.831 1734.74 530.096 1731.46 C 531.572 1725.9 623.636 1622.69 636.825 1608.26 L 319.388 1747.29 C 265.485 1771.07 211.402 1794.44 157.146 1817.4 C 129.281 1829.32 101.127 1841.67 73.0812 1853.23 C 69.9089 1854.54 61.0815 1857.48 58.3999 1854.78 C 59.1566 1846.86 72.0889 1839.05 78.4362 1834.66 C 102.655 1819.22 129.314 1799.61 153.309 1783.13 C 206.75 1746.15 260.479 1709.59 314.494 1673.46 L 435.909 1592.51 C 459.842 1576.74 491.18 1557.54 513.138 1540.14 C 486.959 1547.55 455.116 1553.8 427.71 1560.99 C 392.344 1570.36 356.891 1579.41 321.355 1588.11 C 313.15 1590.13 268.814 1602.58 264.025 1599.35 L 264.346 1597.3 C 270.958 1589.39 359.187 1539.4 372.862 1531.41 C 420.974 1503.24 468.916 1474.78 516.685 1446.03 C 548.958 1427 590.395 1404.02 620.966 1382.93 C 608.233 1385.45 592.712 1387.37 579.678 1389.45 L 511.136 1400.7 C 493.367 1403.55 448.584 1411.64 431.934 1412.27 C 429.386 1410.89 430.161 1411.93 429.136 1409.47 C 433.289 1402.45 492.228 1377.16 502.727 1372.28 C 578.298 1336.9 654.186 1302.19 730.38 1268.17 C 775.234 1247.82 819.526 1225.25 865.373 1207.5 C 887.406 1198.97 904.887 1195.27 928.444 1193.42 z"/>
<path transform="translate(0,0)" fill="rgb(239,115,55)" d="M 923.98 1203.39 C 957.964 1198.66 990.088 1211.14 1016.19 1232.28 C 950.609 1220.81 890.478 1235.74 831.687 1264.67 C 784.543 1287.53 740.962 1317.1 702.303 1352.47 C 699.18 1355.28 695.724 1358.22 692.832 1361.25 C 682.902 1371.63 675.428 1377.42 695.174 1380.92 C 712.246 1383.95 729.312 1386.35 746.457 1388.52 C 731.742 1402.84 705.575 1423.04 688.958 1436.91 L 573.215 1534 C 563.592 1542.21 526.501 1573.66 520.16 1582.01 C 519.817 1585.43 519.622 1583.66 522.056 1587.32 C 529.648 1590.49 678.838 1535.22 700.469 1527.27 C 699.294 1533.95 695.74 1545.27 700.029 1550.55 C 707.668 1552.09 728.841 1543.99 736.922 1541.29 C 813.706 1516.38 887.178 1482.23 955.723 1439.6 C 956.414 1444.39 956.505 1448.46 959.015 1452.49 C 960.854 1453.42 962.808 1454.33 964.958 1453.1 C 999.499 1433.3 1030.25 1403.12 1053.87 1371.27 C 1063.5 1358.28 1067.53 1345.96 1074.76 1333.7 L 1075.21 1332.94 C 1077.42 1358.31 1070.96 1386.38 1054.32 1405.99 C 1004.91 1464.22 931.123 1523.23 865.181 1560.87 C 873.807 1545.34 883.914 1529.51 890.949 1513.16 C 892.887 1508.66 893.594 1504.32 889.893 1500.78 C 870.639 1495.99 607.497 1679.7 566.88 1702.98 L 565.766 1703.61 C 572.712 1693.71 589.475 1675.86 598.191 1665.97 C 615.739 1646.12 632.994 1626 649.948 1605.64 C 651.462 1602.9 651.035 1603.5 651.708 1600.26 C 650.902 1598.24 651.447 1598.42 649.898 1597.42 C 647.016 1595.54 639.697 1597.73 636.467 1599.11 C 617.85 1607.08 599.07 1615.49 580.523 1623.65 L 478.851 1668.11 L 300.714 1745.43 C 235.392 1774.07 165.335 1805.52 99.4597 1832.09 C 133.706 1806.06 177.6 1777.51 213.43 1753.13 L 414.256 1617.45 L 495.668 1562.57 C 502.494 1557.91 537.549 1535.99 537.853 1529.43 L 535.988 1527.77 C 527.548 1525.64 472.491 1541.56 460.253 1544.68 C 406.798 1558.58 353.266 1572.17 299.658 1585.46 C 328.663 1565.77 375.984 1539.83 407.538 1521.35 L 553.821 1434.1 C 565.282 1427.35 640.3 1384.62 644.773 1378.28 C 644.399 1374.49 645.072 1376.12 642.768 1373.17 C 631.302 1371.97 594.038 1379.14 580.607 1381.11 C 543.724 1386.53 505.479 1394.43 468.697 1399.76 C 488.551 1389.06 517.993 1376.46 538.916 1366.78 L 673.506 1304.84 L 789.632 1251.5 C 813.523 1240.51 841.645 1226.74 866.093 1217.65 C 884.73 1210.54 904.172 1205.75 923.98 1203.39 z"/>
<path transform="translate(0,0)" fill="rgb(250,232,131)" d="M 958.593 1235.41 C 980.976 1233.29 1005.66 1237.39 1027.61 1241.7 C 1047.41 1263.46 1065.39 1289.8 1072.33 1318.72 C 1051.33 1377.47 1013.84 1410.82 964.221 1445.55 C 963.769 1439.98 963.861 1435.06 960.792 1430.48 C 960.085 1430.16 959.378 1429.84 958.671 1429.52 C 948.638 1434.81 929.817 1446.81 921.036 1451.77 C 851.56 1491.02 781.556 1518.93 705.942 1543.04 C 707.187 1537.61 712.039 1522.31 707.446 1518.28 C 696.654 1519.1 622.687 1546.85 608.5 1552.02 L 536.284 1576.84 L 681.911 1453.83 C 706.742 1432.88 732.102 1412.18 756.824 1391.08 C 759.905 1388.46 760.146 1388.38 760.709 1385.21 C 755.22 1379.48 704.771 1374.67 692.855 1372.6 C 760.407 1305.11 861.913 1244 958.593 1235.41 z"/>
<path transform="translate(0,0)" fill="rgb(28,40,56)" d="M 966.605 1257.36 C 977.827 1255.1 995.179 1257.34 1005.84 1261.9 C 1019.63 1267.82 1030.35 1279.18 1035.47 1293.29 C 1070.49 1387.53 764.343 1476.92 752.984 1471.34 L 752.447 1469.48 C 755.017 1461.3 760.585 1457.67 767.085 1452.17 C 812.127 1411.38 861.202 1371.31 907.033 1330.81 C 880.515 1330.77 853.905 1333.19 827.453 1334.85 C 819.942 1335.33 810.283 1336.56 803.013 1335.53 C 800.548 1332.98 801.501 1334.47 800.602 1330.58 C 803.81 1325.62 823.01 1315.59 828.868 1312.43 C 870.37 1290.09 919.255 1263.21 966.605 1257.36 z"/>
<path transform="translate(0,0)" fill="rgb(239,115,55)" d="M 975.301 1266.42 C 985.88 1265.89 997.008 1267.82 1006.36 1273 C 1017.63 1279.24 1023.08 1287.61 1026.86 1299.54 C 1030 1309.46 1027.58 1323.75 1021.72 1331.95 C 979.456 1391.08 842.546 1439.76 777.136 1456.28 C 784.217 1449.1 791.909 1442.75 799.574 1436.2 L 882.917 1364.34 C 891.485 1356.9 916.915 1335.78 922.321 1328.17 C 922.361 1324.22 922.873 1325.97 920.852 1322.7 C 914.873 1319.26 841.457 1324.67 828.122 1324.91 C 864.886 1301.23 932.256 1269.81 975.301 1266.42 z"/>
<path transform="translate(0,0)" fill="rgb(28,40,56)" d="M 1390.05 307.21 C 1394.94 297.338 1400 276.596 1406.36 269.624 L 1407.73 269.659 C 1408.88 272.196 1409.32 276.701 1408.09 279.226 C 1398.24 299.437 1393 324.75 1383.48 344.589 L 1381.75 345.499 C 1379.75 342.608 1383.09 338.4 1381.2 330.52 C 1383.76 322.302 1386.79 315.143 1390.05 307.21 z"/>
<path transform="translate(0,0)" fill="rgb(28,40,56)" d="M 934.6 427.703 C 926.049 426.142 898.236 410.02 896.011 402.357 L 897.38 401.117 C 905.082 401.11 914.501 409.635 922.853 413.912 L 923.947 414.461 C 928.552 417.03 932.854 418.902 936.198 422.877 L 936.587 425.34 L 934.6 427.703 z"/>
<path transform="translate(0,0)" fill="rgb(28,40,56)" d="M 1357.88 291.124 C 1363.57 282.354 1368.26 264.632 1375.96 258.917 L 1378.41 258.607 L 1379.69 259.862 C 1378.82 265.358 1368.76 285.788 1365.93 293.815 C 1364.79 296.188 1364.85 296.014 1362.76 297.638 L 1360.44 297.299 C 1357.68 293.805 1358.59 295.748 1357.88 291.124 z"/>
<path transform="translate(0,0)" fill="rgb(28,40,56)" d="M 924.733 444.491 C 916.567 439.957 895.934 428.508 890.912 421.741 L 891.215 420.302 C 899.539 419.912 923.535 434.442 929.846 440.073 L 929.655 442.772 C 927.096 444.705 928.238 444.094 924.733 444.491 z"/>
<path transform="translate(0,0)" fill="rgb(28,40,56)" d="M 1375.1 295.683 C 1378.57 289.031 1387.71 266.941 1392.55 264.235 L 1394.54 264.384 C 1397.08 270.547 1383.62 293.889 1380.63 301.558 C 1375.94 300.412 1376.47 299.667 1375.1 295.683 z"/>
</svg>