<?xml version="1.0" encoding="UTF-8"?>
<svg width="1408" height="768" viewBox="0 0 1408 768" xmlns="http://www.w3.org/2000/svg">
  <path id="1" d="M 0,768 C 0,512 0,256 0,0 C 469.333,0 938.667,0 1408,0 C 1408,256 1408,512 1408,768 C 938.667,768 469.333,768 0,768 ZM 525,510 C 524.500,509.585 524,509.170 523.500,508.755 C 522.675,508.070 522,507.029 522,506.441 C 522,505.853 520.088,504.312 517.750,503.018 C 514.289,501.101 511.599,500.582 503.255,500.219 C 493.175,499.781 492.888,499.831 485.524,503.328 C 477.781,507.005 470.622,513.287 468.133,518.589 C 467.381,520.190 466.426,522.190 466.010,523.033 C 465.594,523.876 465.337,528.463 465.439,533.227 C 465.501,536.114 465.561,539.001 465.623,541.888 C 464.280,542.115 462.937,542.342 461.594,542.569 C 453.480,543.940 443.643,552.483 438.520,562.609 C 435.917,567.754 435.537,569.575 435.520,577 C 435.501,585.148 437.146,592 439.121,592 C 439.604,592 440,592.640 440,593.422 C 440,595.685 448.098,602 451,602 C 451.028,602.250 451.056,602.500 451.084,602.750 C 451.130,603.162 450.245,604.971 449.117,606.769 C 446.293,611.272 444.606,617.642 444.819,623 C 445.074,629.413 445.184,629.857 446.650,630.419 C 447.374,630.697 447.723,631.558 447.426,632.333 C 447.129,633.108 447.474,634.381 448.193,635.163 C 448.912,635.945 449.991,637.465 450.592,638.542 C 451.193,639.619 452.909,641.101 454.406,641.835 C 455.903,642.569 457.372,643.807 457.671,644.585 C 457.970,645.363 459.039,646 460.048,646 C 461.057,646 462.128,646.397 462.428,646.883 C 462.728,647.369 465.453,648.076 468.484,648.455 C 476.704,649.482 483.482,646.937 491,640 C 491.297,640.417 491.594,640.833 491.891,641.250 C 492.381,641.938 493.830,644.692 495.111,647.372 C 497.992,653.399 504.440,658.515 510.799,659.819 C 525.870,662.908 540.099,656.688 546.041,644.414 C 546.718,643.016 547.395,641.618 548.072,640.220 C 549.643,640.805 551.215,641.390 552.786,641.975 C 559.941,644.640 570.966,644.103 578.185,640.737 C 585.708,637.229 593.970,628.837 598.041,620.568 C 604.917,606.600 604.157,589.657 596.322,582.267 C 595.157,581.168 593.991,580.070 592.826,578.971 C 593.938,578.465 595.051,577.958 596.163,577.452 C 615.620,568.595 626.348,557.443 637,535 C 637,534.260 637,533.521 637,532.781 C 637,530.730 636.772,530.648 634,531.694 C 632.350,532.317 631,533.540 631,536 C 630.521,536.417 630.043,536.833 629.564,537.250 C 628.774,537.938 625.512,541.645 622.314,545.488 C 619.116,549.331 614.362,554.394 607,561 C 607.146,559.833 607.291,558.667 607.437,557.500 C 607.677,555.575 607.494,554 607.029,554 C 606.564,554 604.100,556.025 601.553,558.500 C 599.006,560.975 596.182,563 595.276,563 C 594.370,563 592.548,564.013 591.228,565.250 C 589.908,566.487 587.629,567.500 586.164,567.500 C 583.986,567.500 583.454,568.001 583,573 C 582.667,573.333 582.333,573.667 582,574 C 581.588,573.333 581.175,572.667 580.763,572 C 578.927,569.033 578.314,569.496 576.930,574.895 C 575.680,579.771 575.690,579.811 579.394,584.856 C 582.480,589.060 582.933,590.268 581,594 C 581,595.333 581,596.667 581,598 C 580.330,599.417 579.661,600.833 578.991,602.250 C 577.886,604.588 576.986,607.443 576.991,608.595 C 576.996,609.747 576.093,611.511 574.985,612.514 C 573.877,613.517 572.687,616.104 572.342,618.262 C 571.997,620.420 570.604,623.505 569.247,625.118 C 567.356,627.365 566.923,628.745 568,634 C 565.667,634 563.333,634 561,634 C 561.297,633.083 561.594,632.167 561.891,631.250 C 562.381,629.737 563.504,627.150 564.385,625.500 C 566.733,621.105 566.351,619.406 563.750,622.673 C 560.683,626.526 559.292,629.845 559,634 C 557.667,633.667 556.333,633.333 555,633 C 555.265,632.583 555.530,632.167 555.795,631.750 C 558.291,627.828 561.164,618.764 560.213,617.813 C 558.817,616.417 557,617.668 557,620.024 C 557,621.072 555.875,623.970 552,631 C 550.667,630.333 549.333,629.667 548,629 C 548.667,628.259 549.333,627.519 550,626.778 C 551.100,625.556 552,623.904 552,623.107 C 552,622.310 552.719,620.863 553.598,619.892 C 554.477,618.921 554.900,617.648 554.539,617.063 C 553.361,615.156 549.982,615.916 549.079,618.291 C 548.600,619.551 547.478,621.188 546.585,621.929 C 545.213,623.068 544.688,623.027 543.181,621.664 C 541.517,620.159 541.099,620.365 536.870,624.776 C 534.379,627.374 532.066,630.255 531.730,631.178 C 531.394,632.101 529.854,633.001 528.309,633.178 C 526.086,633.433 525.434,634.074 525.184,636.250 C 524.841,639.230 522.810,639.770 519.750,637.696 C 518.296,636.710 518,636.809 518,638.280 C 518,639.253 516.881,640.475 515.514,640.995 C 514.147,641.515 511.194,642.826 508.953,643.909 C 504.905,645.865 504.865,645.865 502.916,643.916 C 501.249,642.249 501.182,641.867 502.472,641.372 C 503.643,640.923 503.845,639.842 503.358,636.645 C 502.550,631.341 501.358,629.872 498.455,630.601 C 496.514,631.088 496.224,630.858 496.662,629.183 C 496.949,628.084 498.043,626.960 499.092,626.686 C 501.434,626.074 501.523,624.666 499.356,622.499 C 497.265,620.408 493.241,621.291 490.500,624.443 C 489.047,626.114 487.475,626.723 484.750,626.671 C 481.531,626.610 481,626.912 481,631 C 480.176,631.171 479.353,631.341 478.529,631.512 C 477.170,631.793 475.619,632.843 475.082,633.846 C 474.343,635.226 473.305,635.551 470.803,635.181 C 467.946,634.759 467.376,635.043 466.580,637.282 C 466.273,638.145 465.966,639.009 465.659,639.872 C 467.442,639.798 469.226,639.722 471.009,639.648 C 474.424,639.506 476.519,638.942 476.804,638.088 C 477.049,637.352 478.094,636.131 481,634 C 481.478,633.467 481.955,632.933 482.433,632.400 C 484.204,630.423 486.667,631.492 484.991,633.511 C 484.204,634.459 484.190,635.443 486,639 C 486,639.243 486,639.485 486,639.728 C 486,640.775 480.076,643.634 476.156,644.479 C 470.323,645.736 466.467,645.271 461.414,642.699 C 452.808,638.319 449,632.051 449,622.264 C 449,615.178 451.732,610.251 457.642,606.681 C 460.673,604.850 461.954,603.481 461,601 C 459.631,600.252 458.262,599.504 456.893,598.756 C 447.467,593.606 443.631,587.600 443.636,578 C 443.640,570.544 445.811,565.434 451.793,558.799 C 456.693,553.364 461.988,551.049 469.581,551.022 C 475.011,551.002 475.803,550.736 476.982,548.533 C 478.126,546.396 478.015,545.314 476.151,540.444 C 473.362,533.157 473.436,529.253 476.464,523.876 C 480.173,517.289 488.837,511.227 497,509.507 C 498.925,509.101 501.097,508.288 501.826,507.699 C 502.686,507.005 503.389,506.975 503.826,507.615 C 504.197,508.158 506.948,509.153 509.940,509.827 C 516.149,511.226 521.293,514.734 523.558,519.113 C 525.697,523.250 529.858,522.851 531.997,518.304 C 533.437,515.244 534.949,513.166 541.417,505.371 C 544.672,501.448 557.137,491.027 561,489 C 564.667,487 568.333,485 572,483 C 572.333,482.667 572.667,482.333 573,482 C 576.250,480.912 579.500,479.825 582.750,478.737 C 593.644,475.092 595.288,474.276 594.457,472.931 C 593.117,470.764 576.415,472.949 571,476 C 569.019,476.787 567.039,477.573 565.058,478.360 C 549.772,484.432 537.838,494.667 527,511 C 526.333,510.667 525.667,510.333 525,510 ZM 500,545 C 500.204,544.175 500.408,543.349 500.612,542.524 C 501.981,536.986 510.741,531.720 514.890,533.941 C 517.408,535.289 518.537,533.691 516.349,531.875 C 515.346,531.042 512.394,530.554 508.663,530.605 C 502.826,530.684 502.465,530.845 498.802,534.973 C 495.267,538.957 495,539.694 495,545.469 C 495,547.539 495,549.610 495,551.680 C 493.644,552.127 492.289,552.575 490.933,553.022 C 485.074,554.956 479.393,561.010 475,570 C 475.002,571.750 475.004,573.500 475.006,575.250 C 475.017,585.656 479.134,593.028 485.628,594.269 C 486.520,594.440 487.413,594.610 488.305,594.781 C 487.441,593.448 486.576,592.115 485.712,590.782 C 477.351,577.887 482.406,562.212 496.041,558.758 C 502.277,557.178 504.882,554.154 501,553 C 500.667,550.333 500.333,547.667 500,545 ZM 527,610 C 525.827,610.351 524.653,610.702 523.480,611.053 C 520.476,611.951 519.376,611.777 515.980,609.868 C 513.791,608.638 512,607.013 512,606.257 C 512,605.501 511.550,605.134 510,606 C 510.154,606.759 510.309,607.519 510.463,608.278 C 511.091,611.367 515.738,615.437 520,616.631 C 522.759,617.404 524.399,617.230 532,614 C 532.701,613.417 533.401,612.833 534.102,612.250 C 535.258,611.287 536.832,609.938 539,608 C 539.180,608.289 539.359,608.576 539.539,608.865 C 540.920,611.085 547.974,613.228 551.640,612.540 C 561.431,610.703 567.824,603.979 570.071,593.157 C 571.335,587.070 570.606,583.401 567.778,581.626 C 565.704,580.324 564.330,581.441 563.624,585 C 563.351,586.375 562.717,589.585 562.215,592.134 C 560.560,600.532 553.976,606.816 548.177,605.535 C 546.705,605.210 543.851,603.570 541.835,601.891 C 538.745,599.318 537.843,599.014 536.085,599.955 C 534.938,600.569 534,601.730 534,604 C 531.667,606 529.333,608 527,610 ZM 544,548 C 543.250,548.895 542.500,549.789 541.750,550.684 C 540.513,552.160 539.162,553.960 538,556 C 538,556.980 538,557.961 538,558.941 C 538,560.559 538.442,562.155 538.981,562.488 C 539.520,562.821 543.683,561.448 548.231,559.436 C 552.779,557.424 558.188,555.153 564,553 C 567.055,551.336 570.109,549.671 573.164,548.007 C 578.204,545.261 583.262,542.223 584.404,541.257 C 586.422,539.550 586.488,539.575 586.799,542.177 C 586.975,543.649 587.767,545.337 590,547 C 590.250,547.038 590.500,547.076 590.750,547.114 C 593.658,547.555 613.983,534.183 613.996,531.821 C 613.998,531.448 614.577,530.548 615.283,529.821 C 620.435,524.514 622.160,518.328 617.650,521.333 C 616.467,522.121 613.273,524.884 610.551,527.472 C 603.078,534.578 594,540.357 594,538.008 C 594,537.497 594.941,536.201 596.091,535.130 C 599.515,531.940 598.006,529.436 593,530 C 592.583,530.363 592.167,530.727 591.750,531.090 C 591.062,531.689 586.938,534.052 582.585,536.340 C 578.232,538.628 572.044,541.963 563,547 C 562.083,547.374 561.167,547.748 560.250,548.122 C 558.737,548.739 556.152,549.954 554.504,550.823 C 551.734,552.284 551.490,552.275 551,549 C 553.333,546.667 555.667,544.333 558,542 C 558,541.667 558,541.333 558,541 C 559.812,538.917 561.624,536.833 563.436,534.750 C 566.426,531.312 572.163,525.350 576.186,521.500 C 578.624,519.167 581.062,516.833 583.500,514.500 C 582.667,513.739 581.833,512.978 581,512.217 C 578.690,510.107 578.200,510.031 574.549,511.197 C 571.458,512.185 570.751,512.191 572,510 C 573.083,508.884 574.167,507.768 575.250,506.652 C 578.949,502.841 590.776,494.523 593.911,493.528 C 595.060,493.163 596,492.194 596,491.374 C 596,490.554 596.450,490.134 598,491 C 598.747,490.917 599.493,490.833 600.240,490.750 C 601.486,490.611 602.634,489.690 602.828,488.675 C 603.113,487.181 602.707,486.954 598,488 C 597.417,488.141 596.833,488.282 596.250,488.423 C 595.287,488.656 593.825,489.017 593,489.227 C 583.286,491.698 563.557,507.294 559.849,515.432 C 558.266,518.906 560.203,521 565,521 C 565.334,521.083 565.667,521.167 566.001,521.250 C 566.551,521.388 564.527,524.139 561.501,527.364 C 558.475,530.589 556,533.554 556,533.952 C 556,534.350 553.300,537.674 544,548 ZM 713,108 C 711.468,108.192 709.936,108.384 708.404,108.576 C 703.466,109.195 691.084,115.254 684.528,120.260 C 662.278,137.251 651.076,159.235 651.714,184.664 C 652.147,201.949 660.397,215.753 675.692,224.789 C 677.628,225.933 679.564,227.077 681.500,228.221 C 678.167,227.373 674.833,226.526 671.500,225.678 C 657.136,222.026 645.276,217.033 635.478,210.514 C 621.831,201.434 601.073,179.658 592.769,165.712 C 588.501,158.544 586.109,156.514 583.070,157.478 C 576.633,159.521 581.715,170.489 597.732,189.118 C 612.651,206.471 625.132,217.017 639,223.990 C 653.206,231.133 675.305,237 688.004,237 C 689.932,237 691.860,237 693.788,237 C 693.020,239.417 692.253,241.834 691.485,244.251 C 687.877,255.612 686.659,266.598 687.311,281.886 C 688.343,306.077 695.273,329.316 702.222,331.886 C 703.923,332.515 703.009,333.626 695.624,339.895 C 692.766,342.321 689.909,344.747 687.051,347.173 C 685.126,346.510 683.200,345.847 681.275,345.184 C 667.519,340.447 639.236,338.887 629.325,342.319 C 609.294,349.255 554.359,392.558 546,408 C 546.271,409.082 546.542,410.165 546.813,411.247 C 547.293,413.164 548.699,415.097 550.248,415.966 C 552.626,417.301 554.251,417.161 567.685,414.469 C 579.729,412.055 585.025,411.500 596,411.500 C 608.645,411.500 620.816,413.033 624.051,415.032 C 625.194,415.739 624.938,416.455 622.708,418.783 C 618.954,422.701 618.683,425.221 621.135,433.453 C 621.835,435.802 622.534,438.151 623.234,440.500 C 622.112,440.807 620.989,441.113 619.867,441.420 C 609.546,444.241 601.508,447.135 599.865,448.622 C 594.183,453.764 602.231,478.611 616.574,500.212 C 625.938,514.314 641.343,529.625 650.657,534.088 C 654.420,535.891 658.346,537.308 659.380,537.236 C 662.178,537.041 665.624,533.369 670.796,525.074 C 672.339,522.599 673.884,520.123 675.427,517.648 C 677.090,518.873 678.753,520.099 680.416,521.324 C 683.160,523.346 685.764,525 687,525 C 687.836,525.206 688.672,525.412 689.508,525.618 C 691.940,526.217 693.479,525.805 703,522 C 702.815,524.310 702.631,526.622 702.446,528.932 C 701.262,543.752 694.035,563.445 683.169,581.461 C 678.154,589.777 677.748,593.870 681.635,596.927 C 685.964,600.333 689.909,599.585 702.768,592.917 C 721.347,583.283 750.786,564.098 761.673,554.531 C 769.267,547.858 775.492,540.592 778.469,534.928 C 783.225,525.878 787.886,507.982 788.674,495.752 C 788.883,492.503 789.093,489.252 789.302,486.003 C 791.502,484.781 793.701,483.560 795.901,482.338 C 837.377,459.302 875.504,429.665 901.180,400.500 C 905.538,395.550 910.139,390.375 911.404,389 C 914.344,385.805 927.649,368.170 931.255,362.688 C 951.250,332.293 966.800,297.505 969.559,277 C 970.316,271.375 970.494,270.558 971.205,269.444 C 971.576,268.863 972.018,264.277 972.189,259.253 C 972.472,250.948 972.303,249.934 970.329,248.093 C 963.024,241.282 921.971,237.939 895,241.958 C 882.419,243.833 880.460,244.163 876,245.163 C 873.525,245.718 870.375,246.375 869,246.622 C 867.625,246.869 864.925,247.598 863,248.241 C 861.075,248.884 859.232,249.341 858.905,249.257 C 858.578,249.173 854.303,250.249 849.405,251.648 C 844.507,253.047 839.600,254.447 838.500,254.758 C 837.400,255.069 835.600,255.690 834.500,256.138 C 833.400,256.586 826.875,259.083 820,261.689 C 809.491,265.672 778.432,280.547 771.452,284.940 C 769.698,286.044 768.046,285.768 759.952,283.022 C 732.917,273.849 721.183,264.127 709.683,241.374 C 708.819,239.665 707.956,237.957 707.092,236.248 C 709.062,236.025 711.033,235.802 713.003,235.579 C 733.537,233.256 751.159,226.851 768.847,215.281 C 777.991,209.300 795.777,190.795 803.239,179.500 C 811.406,167.138 818.648,153.393 819.562,148.520 C 820.468,143.691 818.784,140 815.676,140 C 812.464,140 810.849,142.094 806.675,151.668 C 800.839,165.055 788.956,183.271 778.580,194.735 C 772.431,201.529 759.570,211.184 750.762,215.620 C 746.930,217.550 743.626,218.959 743.420,218.753 C 743.214,218.547 745.855,215.481 749.288,211.939 C 763.596,197.181 767.484,178.657 760.219,159.872 C 753.057,141.354 740.968,130.115 724.716,126.866 C 720.420,126.007 718.297,126 716.466,126.834 C 713.175,128.333 713.326,130.826 716.750,131.517 C 723.337,132.847 730.798,135.360 734.534,137.510 C 744.433,143.205 753.662,157.526 756.052,170.901 C 758.519,184.706 754.109,196.966 742.528,208.500 C 731.544,219.439 720.188,224.207 705,224.258 C 689.343,224.310 677.378,219.611 668.875,210.071 C 661.283,201.553 659.519,196.049 659.553,181 C 659.578,169.928 659.892,167.647 662.305,161.033 C 667.616,146.476 676.675,134.354 690,123.973 C 693.025,121.616 699.438,117.734 713,111 C 713.333,111 713.667,111 714,111 C 714.500,111 715,111 715.500,111 C 716.351,111 717,110.103 717,108.927 C 717,107.496 716.535,107.031 714,108 C 713.667,108 713.333,108 713,108 ZM 694.660,128.673 C 690.935,132.291 690.140,135.738 693.146,135.238 C 694.011,135.094 698.466,132.726 703.044,129.974 C 711.268,125.031 722.254,120.914 731,119.498 C 736.696,118.576 737.371,118.153 735.926,116.411 C 734.315,114.470 723.817,114.572 716.932,116.596 C 709.298,118.840 699.079,124.381 694.660,128.673 ZM 693.669,162 C 691.420,165.233 691.785,171.348 694.254,171.816 C 695.520,172.056 696.553,170.876 697.968,167.574 C 700.262,162.221 702.758,161.605 705.911,165.613 C 708.428,168.813 711.493,168.239 710.487,164.755 C 709.102,159.960 706.460,157.510 702.400,157.254 C 698.263,156.994 696.475,157.965 693.669,162 ZM 697.621,183.192 C 695.380,184.446 695.505,191.680 697.861,197.167 C 700.461,203.222 707.631,209.593 712.835,210.472 C 718.047,211.353 723.335,209.661 726.013,206.256 C 728.904,202.580 727.121,201.095 722.476,203.310 C 715.106,206.824 709.427,204.805 704.434,196.895 C 701.272,191.887 701.205,189.523 704.250,190.455 C 709.924,192.192 720.785,192.233 725.893,190.536 C 730.827,188.897 738,183.389 738,181.239 C 738,178.921 734.539,179.048 731.008,181.495 C 723.910,186.414 715.335,187.294 705.210,184.143 C 701.285,182.921 698.687,182.595 697.621,183.192 ZM 726.670,155 C 726.362,155.825 726.198,158.300 726.305,160.500 C 726.540,165.323 729.195,166.121 729.990,161.607 C 730.270,160.016 731.310,158.216 732.301,157.607 C 733.806,156.682 734.565,157.062 736.908,159.912 C 738.815,162.232 740.240,163.122 741.357,162.693 C 745.915,160.944 739.309,151 733.588,151 C 730.205,151 727.601,152.505 726.670,155 Z" fill="#FFFFFF" stroke="none" />
  <path id="5" d="M 546,408 C 554.359,392.558 609.294,349.255 629.325,342.319 C 639.236,338.887 667.519,340.447 681.275,345.184 C 683.200,345.847 685.126,346.510 687.051,347.173 C 689.909,344.747 692.766,342.321 695.624,339.895 C 703.009,333.626 703.923,332.515 702.222,331.886 C 695.273,329.316 688.343,306.077 687.311,281.886 C 686.659,266.598 687.877,255.612 691.485,244.251 C 692.253,241.834 693.020,239.417 693.788,237 C 691.860,237 689.932,237 688.004,237 C 675.305,237 653.206,231.133 639,223.990 C 625.132,217.017 612.651,206.471 597.732,189.118 C 581.715,170.489 576.633,159.521 583.070,157.478 C 586.109,156.514 588.501,158.544 592.769,165.712 C 601.073,179.658 621.831,201.434 635.478,210.514 C 645.276,217.033 657.136,222.026 671.500,225.678 C 674.833,226.526 678.167,227.373 681.500,228.221 C 679.564,227.077 677.628,225.933 675.692,224.789 C 660.397,215.753 652.147,201.949 651.714,184.664 C 651.076,159.235 662.278,137.251 684.528,120.260 C 691.084,115.254 703.466,109.195 708.404,108.576 C 709.936,108.384 711.468,108.192 713,108 C 713,109 713,110 713,111 C 699.438,117.734 693.025,121.616 690,123.973 C 676.675,134.354 667.616,146.476 662.305,161.033 C 659.892,167.647 659.578,169.928 659.553,181 C 659.519,196.049 661.283,201.553 668.875,210.071 C 677.378,219.611 689.343,224.310 705,224.258 C 720.188,224.207 731.544,219.439 742.528,208.500 C 754.109,196.966 758.519,184.706 756.052,170.901 C 753.662,157.526 744.433,143.205 734.534,137.510 C 730.798,135.360 723.337,132.847 716.750,131.517 C 713.326,130.826 713.175,128.333 716.466,126.834 C 718.297,126 720.420,126.007 724.716,126.866 C 740.968,130.115 753.057,141.354 760.219,159.872 C 767.484,178.657 763.596,197.181 749.288,211.939 C 745.855,215.481 743.214,218.547 743.420,218.753 C 743.626,218.959 746.930,217.550 750.762,215.620 C 759.570,211.184 772.431,201.529 778.580,194.735 C 788.956,183.271 800.839,165.055 806.675,151.668 C 810.849,142.094 812.464,140 815.676,140 C 818.784,140 820.468,143.691 819.562,148.520 C 818.648,153.393 811.406,167.138 803.239,179.500 C 795.777,190.795 777.991,209.300 768.847,215.281 C 751.159,226.851 733.537,233.256 713.003,235.579 C 711.033,235.802 709.062,236.025 707.092,236.248 C 707.956,237.957 708.819,239.665 709.683,241.374 C 721.183,264.127 732.917,273.849 759.952,283.022 C 768.046,285.768 769.698,286.044 771.452,284.940 C 778.432,280.547 809.491,265.672 820,261.689 C 826.875,259.083 833.400,256.586 834.500,256.138 C 835.600,255.690 837.400,255.069 838.500,254.758 C 839.600,254.447 844.507,253.047 849.405,251.648 C 854.303,250.249 858.578,249.173 858.905,249.257 C 859.232,249.341 861.075,248.884 863,248.241 C 864.925,247.598 867.625,246.869 869,246.622 C 870.375,246.375 873.525,245.718 876,245.163 C 880.460,244.163 882.419,243.833 895,241.958 C 921.971,237.939 963.024,241.282 970.329,248.093 C 972.303,249.934 972.472,250.948 972.189,259.253 C 972.018,264.277 971.576,268.863 971.205,269.444 C 970.494,270.558 970.316,271.375 969.559,277 C 966.800,297.505 951.250,332.293 931.255,362.688 C 927.649,368.170 914.344,385.805 911.404,389 C 910.139,390.375 905.538,395.550 901.180,400.500 C 875.504,429.665 837.377,459.302 795.901,482.338 C 793.701,483.560 791.502,484.781 789.302,486.003 C 789.093,489.252 788.883,492.503 788.674,495.752 C 787.886,507.982 783.225,525.878 778.469,534.928 C 775.492,540.592 769.267,547.858 761.673,554.531 C 750.786,564.098 721.347,583.283 702.768,592.917 C 689.909,599.585 685.964,600.333 681.635,596.927 C 677.748,593.870 678.154,589.777 683.169,581.461 C 694.035,563.445 701.262,543.752 702.446,528.932 C 702.631,526.622 702.815,524.310 703,522 C 702.818,521.417 702.636,520.833 702.454,520.250 C 702.062,518.992 702.765,518.125 704.954,517.166 C 706.629,516.432 708,515.218 708,514.466 C 708,513.714 708.675,512.627 711,511 C 711.415,510.778 711.829,510.557 712.244,510.335 C 714.379,509.194 735.133,499.575 743,496.080 C 804.230,468.877 849.035,438.865 885.980,400.306 C 896.569,389.254 914.881,367.588 915.805,365.018 C 915.973,364.551 915.073,363.843 913.805,363.444 C 910.523,362.410 906.070,359.244 896.973,351.477 C 884.026,340.423 868.073,320.728 860.542,306.500 C 859.086,303.750 857.469,301.073 856.948,300.550 C 856.427,300.028 856,298.845 856,297.922 C 856,296.999 855.372,295.724 854.605,295.087 C 853.838,294.450 852.904,292.305 852.532,290.321 C 852.160,288.337 851.232,286.089 850.470,285.327 C 849.708,284.565 849.346,283.264 849.664,282.434 C 849.982,281.604 849.458,280.059 848.500,279 C 847.515,277.912 847.030,276.363 847.385,275.439 C 847.730,274.540 847.249,271.654 846.316,269.027 C 845.751,267.435 845.185,265.843 844.620,264.251 C 843.100,264.742 841.580,265.232 840.060,265.723 C 837.552,266.532 833.538,268.076 831.140,269.154 C 828.742,270.232 826.573,270.906 826.319,270.652 C 825.329,269.662 794.783,284.130 777,294.011 C 765.936,300.159 739.600,317.221 738.549,318.921 C 738.011,319.791 740.061,319.919 746.665,319.428 C 755.380,318.780 769.979,320.018 777.114,322.010 C 779.102,322.565 781.969,324.169 783.485,325.574 C 787.670,329.453 786.730,334.830 779.102,350.628 C 772.651,363.988 760.274,387.243 754.271,397.285 C 752.369,400.467 751.057,403.706 751.355,404.483 C 751.653,405.260 755.633,407.755 760.199,410.027 C 771.376,415.588 773.173,417.362 772.797,422.468 C 772.519,426.246 772.288,426.520 769.128,426.822 C 766.628,427.061 763.137,425.812 755.628,421.989 C 744.655,416.403 739,411.495 739,407.556 C 739,404.704 742.345,397.697 761.394,360.650 C 768.987,345.883 774.818,333.428 774.350,332.974 C 772.175,330.860 753.403,329.888 737.270,331.055 C 731.860,331.446 726.449,331.838 721.039,332.229 C 716.782,335.738 712.527,339.246 708.270,342.755 C 701.247,348.545 685.938,362.894 653,396 C 650.667,398.058 648.333,400.117 646,402.175 C 642.150,405.571 639,408.895 639,409.559 C 639,410.223 638.102,411.001 637.005,411.288 C 635.908,411.575 634.699,412.622 634.318,413.614 C 633.937,414.606 632.585,416.449 629,420 C 628.667,420.333 628.333,420.667 628,421 C 627.750,420.998 627.500,420.995 627.250,420.993 C 626.838,420.989 626.356,421.889 626.180,422.993 C 626.004,424.097 626.342,425 628,425 C 627.979,425.250 627.958,425.500 627.937,425.750 C 627.902,426.163 630.231,431.337 633.112,437.250 C 638.309,447.915 638.369,447.988 643,445 C 644.333,446 645.667,447 647,448 C 645.956,448.750 644.913,449.500 643.869,450.250 C 642.825,451 641.781,451.750 640.737,452.500 C 641.986,454.583 643.236,456.667 644.485,458.750 C 646.547,462.188 648.631,465 650,465 C 651,465.667 652,466.333 653,467 C 652.669,467.448 652.337,467.897 652.006,468.345 C 651.283,469.324 652.107,471.220 655.030,475.302 C 656.369,477.172 657.709,479.043 659.048,480.913 C 664.508,476.844 669.968,472.775 675.428,468.706 C 684.437,461.992 698.406,451.775 706.468,446 C 714.530,440.225 723.910,433.436 727.313,430.913 C 736.167,424.348 737.525,423.723 739.017,425.521 C 739.692,426.334 740.977,427.038 741.872,427.083 C 743.176,427.149 742.953,427.845 738,434 C 737.667,434.667 737.333,435.333 737,436 C 736.369,436 735.738,436 735.107,436 C 734.066,436 726.303,440.916 717.857,446.925 C 709.411,452.934 697.325,461.482 691,465.921 C 684.675,470.360 678.803,474.556 677.950,475.246 C 674.892,477.719 665.464,483.740 663.680,484.359 C 662.087,484.912 662.462,485.756 666.677,491.121 C 669.326,494.493 672.057,497.420 674,498 C 674.667,499 675.333,500 676,501 C 681.333,506.333 686.667,511.667 692,517 C 692.334,518.052 692.669,519.105 693.003,520.157 C 693.975,523.217 693.898,523.340 687,525 C 685.764,525 683.160,523.346 680.416,521.324 C 678.753,520.099 677.090,518.873 675.427,517.648 C 673.884,520.123 672.339,522.599 670.796,525.074 C 665.624,533.369 662.178,537.041 659.380,537.236 C 658.346,537.308 654.420,535.891 650.657,534.088 C 641.343,529.625 625.938,514.314 616.574,500.212 C 602.231,478.611 594.183,453.764 599.865,448.622 C 601.508,447.135 609.546,444.241 619.867,441.420 C 620.989,441.113 622.112,440.807 623.234,440.500 C 622.534,438.151 621.835,435.802 621.135,433.453 C 618.683,425.221 618.954,422.701 622.708,418.783 C 624.938,416.455 625.194,415.739 624.051,415.032 C 620.816,413.033 608.645,411.500 596,411.500 C 585.025,411.500 579.729,412.055 567.685,414.469 C 554.251,417.161 552.626,417.301 550.248,415.966 C 548.699,415.097 547.293,413.164 546.813,411.247 C 546.542,410.165 546.271,409.082 546,408 ZM 563.194,401.460 C 560.206,404.188 558.221,406.573 558.783,406.761 C 559.345,406.949 563.787,406.134 568.653,404.950 C 587.174,400.445 612.927,401.336 625.544,406.917 C 626.989,407.556 628.434,408.195 629.879,408.834 C 630.400,408.038 630.922,407.243 631.443,406.447 C 635.383,400.433 649.729,384.177 663.294,370.354 C 668.249,365.305 673.203,360.256 678.158,355.207 C 677.048,354.876 675.939,354.544 674.829,354.213 C 667.206,351.937 655.822,350.500 645.420,350.500 C 634.469,350.500 634.249,350.547 626.486,354.500 C 622.166,356.700 614.025,361.709 608.394,365.632 C 597.353,373.324 572.010,393.412 563.194,401.460 ZM 650,489 C 649.503,488.250 649.005,487.500 648.508,486.750 C 643.965,479.898 633.372,461.522 630.366,455.279 C 629.207,452.872 628.048,450.466 626.889,448.059 C 619.593,450.039 612.296,452.020 605,454 C 605.835,456.391 606.669,458.782 607.504,461.173 C 611.814,473.522 623.028,493.130 632,504 C 634.459,506.583 636.918,509.167 639.377,511.750 C 647.702,520.495 650.316,522.903 654.235,525.440 C 655.147,526.030 656.058,526.620 656.970,527.210 C 658.808,524.783 660.647,522.358 662.485,519.931 C 665.518,515.927 668,511.926 668,511.041 C 668,510.156 665.525,506.987 662.500,504 C 659.475,501.013 656.983,498.103 656.962,497.534 C 656.941,496.965 655.367,494.812 650,489 ZM 697.053,576.187 C 693.789,581.859 691.092,586.869 691.059,587.320 C 690.936,589.012 714.198,575.496 731,564.112 C 756.299,546.971 765.770,538.445 770.345,528.692 C 773.452,522.068 776.781,508.589 777.637,499.165 C 777.859,496.720 778.081,494.275 778.303,491.830 C 774.935,493.520 771.568,495.210 768.200,496.900 C 762.643,499.688 754.138,503.597 749.299,505.585 C 744.460,507.573 739.150,509.803 737.500,510.541 C 729.895,513.942 721.818,516.856 718.325,517.459 C 712.125,518.529 711.002,519.904 711.268,526.097 C 711.909,541.027 706.679,559.458 697.053,576.187 ZM 699.133,264.500 C 698.054,281.544 699.617,293.776 705.169,311.750 C 708.186,321.518 708.465,322 711.102,322 C 715.411,322 718.372,320.517 726.739,314.170 C 731.008,310.932 739.450,304.991 745.500,300.968 C 751.550,296.945 756.878,293.330 757.340,292.936 C 757.802,292.542 755.777,291.434 752.840,290.474 C 731.617,283.535 714.999,269.827 705.858,251.718 C 704.249,248.531 702.549,246.161 702.080,246.451 C 700.825,247.227 699.847,253.216 699.133,264.500 ZM 854.635,261.465 C 852.073,262.029 851.832,262.412 852.366,265.082 C 854.488,275.692 867.561,301.841 877.796,315.946 C 890.055,332.841 900.912,343.471 916.172,353.521 C 917.902,354.660 919.631,355.799 921.361,356.938 C 922.900,354.532 924.440,352.125 925.979,349.719 C 934.821,335.898 943.790,318.767 948.607,306.500 C 950.551,301.550 952.505,296.806 952.950,295.957 C 953.941,294.066 961.381,269.277 962.899,262.807 C 963.505,260.226 964,256.771 964,255.129 C 964,252.256 963.783,252.113 958.250,251.327 C 951.221,250.328 907.044,250.397 901.500,251.416 C 899.300,251.820 896.600,252.320 895.500,252.525 C 894.400,252.730 891.925,253.134 890,253.422 C 882.829,254.495 867.743,257.761 862,259.484 C 859.525,260.227 856.211,261.118 854.635,261.465 Z" fill="#020202" stroke="none" />
  <path id="28" d="M 692,517 C 686.667,511.667 681.333,506.333 676,501 C 679,499 682,497 685,495 C 689.263,492.001 693.150,489.473 696.389,487.446 C 699.628,485.419 709.172,478.639 717.597,472.380 C 726.022,466.121 733.722,461.005 734.708,461.012 C 735.694,461.019 741.675,462.848 748,465.076 C 765.945,471.397 765.505,471.307 769.213,469.390 C 771.010,468.461 778.109,463.639 784.990,458.675 C 824.920,429.866 835.442,422.536 836.416,422.857 C 846.263,426.101 854.059,421.750 854.181,412.943 C 854.364,399.682 836.137,396.966 831.957,409.631 C 831.351,411.466 831.096,413.763 831.391,414.734 C 831.808,416.107 828.221,419.170 815.271,428.500 C 806.110,435.100 794.313,443.665 789.057,447.533 C 783.801,451.401 776.603,456.689 773.062,459.283 C 769.521,461.877 766.118,464 765.500,464 C 764.882,464 757.470,461.710 749.029,458.912 C 736.796,454.856 733.230,454.030 731.454,454.839 C 730.229,455.397 718.600,463.762 705.613,473.427 C 697.742,479.285 689.871,485.142 682,491 C 679.333,493.333 676.667,495.667 674,498 C 672.057,497.420 669.326,494.493 666.677,491.121 C 662.462,485.756 662.087,484.912 663.680,484.359 C 665.464,483.740 674.892,477.719 677.950,475.246 C 678.803,474.556 684.675,470.360 691,465.921 C 697.325,461.482 709.411,452.934 717.857,446.925 C 726.303,440.916 734.066,436 735.107,436 C 735.738,436 736.369,436 737,436 C 737,436.164 737,436.327 737,436.491 C 737,436.761 740.487,437.710 744.750,438.600 C 749.013,439.490 753.175,440.359 754,440.531 C 754.825,440.703 757.638,441.104 765,442 C 768.833,442.959 772.667,443.917 776.500,444.876 C 778.202,443.758 779.905,442.641 781.607,441.523 C 784.416,439.679 789.247,436.106 792.343,433.585 C 795.439,431.064 798.723,429 799.641,429 C 800.559,429 802.590,428.100 804.155,427 C 805.103,426.333 806.052,425.667 807,425 C 807.858,423.917 808.715,422.833 809.573,421.750 C 812.171,418.469 812.312,414.930 810,411 C 809.667,409.333 809.333,407.667 809,406 C 833.810,387.508 834.716,387.021 838.500,387.489 C 845.502,388.356 849.444,389.113 851.500,389.985 C 856.451,392.085 857.896,391.784 863.947,387.393 C 865.965,385.929 867.982,384.464 870,383 C 870.900,383.333 871.799,383.667 872.699,384 C 882.484,387.625 890.427,380.552 887.889,370.473 C 886.059,363.206 883.094,361.718 873,363 C 868.615,365.270 865.597,370.889 866.516,375.074 C 867.034,377.431 866.490,378.142 861.801,381.243 C 860.034,382.411 858.267,383.580 856.500,384.748 C 853.195,383.934 849.891,383.121 846.586,382.307 C 841.133,380.964 835.695,380.110 834.501,380.410 C 832.610,380.885 815.151,393.217 806.500,400.190 C 804.229,402.021 802.771,402.463 800.500,402.010 C 792.909,400.497 784.997,406.765 785.004,414.285 C 785.008,418.249 787.192,423.039 790.126,425.514 C 791.005,426.255 788.970,428.242 782.559,432.900 C 779.636,435.024 776.712,437.147 773.789,439.271 C 771.991,438.892 770.193,438.515 768.395,438.136 C 766.597,437.757 764.798,437.379 763,437 C 754.667,436 746.333,435 738,434 C 742.953,427.845 743.176,427.149 741.872,427.083 C 740.977,427.038 739.692,426.334 739.017,425.521 C 737.525,423.723 736.167,424.348 727.313,430.913 C 723.910,433.436 714.530,440.225 706.468,446 C 698.406,451.775 684.437,461.992 675.428,468.706 C 669.968,472.775 664.508,476.844 659.048,480.913 C 657.709,479.043 656.369,477.172 655.030,475.302 C 652.107,471.220 651.283,469.324 652.006,468.345 C 652.337,467.897 652.669,467.448 653,467 C 657.333,464.333 661.667,461.667 666,459 C 684.730,446.366 706.360,431.097 712.402,426.242 C 714.369,424.661 716.336,423.081 718.303,421.500 C 720.086,414.583 721.869,407.667 723.652,400.750 C 725.435,393.833 727.217,386.917 729,380 C 729.796,380 730.593,380 731.389,380 C 732.703,380 734.728,379.100 738,376 C 744.481,367.638 739.554,355.995 729.538,356.004 C 724.660,356.009 719.315,359.042 717.975,362.566 C 716.185,367.273 716.807,372.617 719.520,375.841 C 720.360,376.839 721.200,377.838 722.040,378.836 C 721.009,382.447 719.977,386.057 718.946,389.668 C 717.244,395.626 714.828,404.645 713.575,409.711 C 712.816,412.781 712.056,415.852 711.297,418.922 C 706.498,422.332 701.697,425.743 696.898,429.153 C 688.979,434.780 678.787,442.447 674.250,446.192 C 671.500,448.461 668.750,450.731 666,453 C 660.667,457 655.333,461 650,465 C 648.631,465 646.547,462.188 644.485,458.750 C 643.236,456.667 641.986,454.583 640.737,452.500 C 641.781,451.750 642.825,451 643.869,450.250 C 644.913,449.500 645.956,448.750 647,448 C 677.103,427.915 692,416.885 692,414.679 C 692,412.435 693.854,401.952 694.934,398.087 C 695.305,396.760 696.371,395.523 697.304,395.337 C 697.869,395.225 698.435,395.112 699,395 C 700,394.323 701,393.647 702,392.970 C 704.544,391.248 704.998,390.299 704.985,386.720 C 704.966,381.388 703.315,378.130 699.500,375.900 C 695.475,373.547 691.903,373.581 689,376 C 684.835,378.542 684.507,379.582 684.552,384.349 C 684.593,388.741 685.093,390.470 686.862,392.353 C 689.079,394.713 689.091,394.860 687.559,400.772 C 686.701,404.081 685.993,408.073 685.985,409.644 C 685.965,413.456 685.542,413.952 678,419.007 C 674.425,421.403 665.088,428.231 657.250,434.181 C 652.500,437.787 647.750,441.394 643,445 C 638.369,447.988 638.309,447.915 633.112,437.250 C 630.231,431.337 627.902,426.163 627.937,425.750 C 627.958,425.500 627.979,425.250 628,425 C 628.667,424 629.333,423 630,422 C 630.500,422 631,422 631.500,422 C 632.325,422 633,421.325 633,419 C 633.917,418.216 634.833,417.433 635.750,416.649 C 637.263,415.356 641.763,410.181 653,396 C 685.938,362.894 701.247,348.545 708.270,342.755 C 712.527,339.246 716.782,335.738 721.039,332.229 C 726.449,331.838 731.860,331.446 737.270,331.055 C 753.403,329.888 772.175,330.860 774.350,332.974 C 774.818,333.428 768.987,345.883 761.394,360.650 C 742.345,397.697 739,404.704 739,407.556 C 739,411.495 744.655,416.403 755.628,421.989 C 763.137,425.812 766.628,427.061 769.128,426.822 C 772.288,426.520 772.519,426.246 772.797,422.468 C 773.173,417.362 771.376,415.588 760.199,410.027 C 755.633,407.755 751.653,405.260 751.355,404.483 C 751.057,403.706 752.369,400.467 754.271,397.285 C 760.274,387.243 772.651,363.988 779.102,350.628 C 786.730,334.830 787.670,329.453 783.485,325.574 C 781.969,324.169 779.102,322.565 777.114,322.010 C 769.979,320.018 755.380,318.780 746.665,319.428 C 740.061,319.919 738.011,319.791 738.549,318.921 C 739.600,317.221 765.936,300.159 777,294.011 C 794.783,284.130 825.329,269.662 826.319,270.652 C 826.573,270.906 828.742,270.232 831.140,269.154 C 833.538,268.076 837.552,266.532 840.060,265.723 C 841.580,265.232 843.100,264.742 844.620,264.251 C 845.185,265.843 845.751,267.435 846.316,269.027 C 847.249,271.654 847.730,274.540 847.385,275.439 C 847.030,276.363 847.515,277.912 848.500,279 C 849.458,280.059 849.982,281.604 849.664,282.434 C 849.346,283.264 849.708,284.565 850.470,285.327 C 851.232,286.089 852.160,288.337 852.532,290.321 C 852.904,292.305 853.838,294.450 854.605,295.087 C 855.372,295.724 856,296.999 856,297.922 C 856,298.845 856.427,300.028 856.948,300.550 C 857.469,301.073 859.086,303.750 860.542,306.500 C 868.073,320.728 884.026,340.423 896.973,351.477 C 906.070,359.244 910.523,362.410 913.805,363.444 C 915.073,363.843 915.973,364.551 915.805,365.018 C 914.881,367.588 896.569,389.254 885.980,400.306 C 849.035,438.865 804.230,468.877 743,496.080 C 735.133,499.575 714.379,509.194 712.244,510.335 C 711.829,510.557 711.415,510.778 711,511 C 710.750,510.980 710.500,510.959 710.250,510.939 C 709.269,510.860 703.645,513.172 703,513.920 C 702.725,514.239 701.037,515.062 696,517 C 695.333,517 694.667,517 694,517 C 693.333,517 692.667,517 692,517 ZM 861.872,342.500 C 859.473,334.484 849.003,329.545 842.334,333.285 C 837.920,335.760 835.509,340.129 835.338,345.961 C 835.203,350.551 834.785,351.719 832.838,352.952 C 828.780,355.522 779.763,391.200 773.758,395.954 C 770.600,398.454 768.013,400.990 768.008,401.589 C 768.003,402.188 769.123,403.191 770.496,403.816 C 772.799,404.865 774.198,404.086 788.600,393.727 C 797.185,387.552 806.117,381.150 808.449,379.500 C 810.781,377.850 818.833,372.086 826.342,366.691 C 839.451,357.272 840.082,356.944 842.219,358.441 C 845.163,360.503 852.471,360.426 856.080,358.294 C 860.686,355.573 863.493,347.918 861.872,342.500 ZM 777,377 C 787.127,372.690 801.633,362.337 802.918,358.500 C 803.471,356.850 803.828,354.825 803.712,354 C 803.596,353.175 804.140,346.493 804.923,339.152 C 805.397,334.703 805.871,330.253 806.345,325.804 C 808.068,324.503 809.793,323.201 811.516,321.900 C 816.641,318.030 816.713,318.010 819.898,319.599 C 828.830,324.055 838.337,314.611 835.024,304.572 C 833.708,300.584 829.032,297.434 825.883,298.414 C 825.255,298.609 824.628,298.805 824,299 C 824,298.750 824,298.500 824,298.250 C 824,297.837 823.100,297.612 820,298 C 813.441,303.359 813,304.288 813,308.224 C 813,312.324 812.653,312.969 809.133,315.408 C 802.053,320.314 801.188,321.823 799.608,332.024 C 798.801,337.236 797.836,345.223 797.464,349.774 C 797.239,352.532 797.014,355.290 796.788,358.048 C 794.300,359.920 791.813,361.792 789.325,363.664 C 785.220,366.753 781.209,370.278 780.410,371.497 C 779.611,372.716 778.067,374.228 776.979,374.857 C 776.319,375.238 775.660,375.619 775,376 C 774.667,376 774.333,376 774,376 C 774,376.500 774,377 774,377.500 C 774,378.325 774.675,379 775.500,379 C 776.325,379 777,378.550 777,377 Z" fill="#FFFFFF" stroke="none" />
  <path id="28" d="M 854.635,261.465 C 856.211,261.118 859.525,260.227 862,259.484 C 867.743,257.761 882.829,254.495 890,253.422 C 891.925,253.134 894.400,252.730 895.500,252.525 C 896.600,252.320 899.300,251.820 901.500,251.416 C 907.044,250.397 951.221,250.328 958.250,251.327 C 963.783,252.113 964,252.256 964,255.129 C 964,256.771 963.505,260.226 962.899,262.807 C 961.381,269.277 953.941,294.066 952.950,295.957 C 952.505,296.806 950.551,301.550 948.607,306.500 C 943.790,318.767 934.821,335.898 925.979,349.719 C 924.440,352.125 922.900,354.532 921.361,356.938 C 919.631,355.799 917.902,354.660 916.172,353.521 C 900.912,343.471 890.055,332.841 877.796,315.946 C 867.561,301.841 854.488,275.692 852.366,265.082 C 851.832,262.412 852.073,262.029 854.635,261.465 ZM 868.300,270.310 C 863.946,274.133 864.258,276.630 869.030,276.156 C 870.939,275.967 874.075,275.118 876,274.271 C 877.925,273.424 880.175,272.637 881,272.522 C 881.825,272.407 884.614,271.581 887.197,270.686 C 894.165,268.273 921.964,261.213 926,260.831 C 931.672,260.295 930.004,258.527 923.500,258.181 C 906.474,257.275 875.360,264.111 868.300,270.310 ZM 914.303,341.164 C 912.357,342.779 913.113,345.441 915.622,345.801 C 917.762,346.108 924,341.655 924,339.820 C 924,339.269 925.468,337.103 927.262,335.007 C 930.652,331.046 932.832,327.318 938.668,315.500 C 940.569,311.650 942.546,307.719 943.062,306.764 C 943.578,305.809 944,304.452 944,303.749 C 944,303.046 944.829,300.902 945.841,298.985 C 949.349,292.343 950.790,282.776 948.025,284.485 C 947.565,284.770 945.508,288.489 943.454,292.751 C 939.480,300.998 935.248,309.527 932.619,314.588 C 931.737,316.287 930.111,318.494 929.007,319.493 C 927.903,320.492 927,321.733 927,322.250 C 927,323.458 916.135,339.643 914.303,341.164 Z" fill="#FFFFFF" stroke="none" />
  <path id="28" d="M 563.194,401.460 C 572.010,393.412 597.353,373.324 608.394,365.632 C 614.025,361.709 622.166,356.700 626.486,354.500 C 634.249,350.547 634.469,350.500 645.420,350.500 C 655.822,350.500 667.206,351.937 674.829,354.213 C 675.939,354.544 677.048,354.876 678.158,355.207 C 673.203,360.256 668.249,365.305 663.294,370.354 C 649.729,384.177 635.383,400.433 631.443,406.447 C 630.922,407.243 630.400,408.038 629.879,408.834 C 628.434,408.195 626.989,407.556 625.544,406.917 C 612.927,401.336 587.174,400.445 568.653,404.950 C 563.787,406.134 559.345,406.949 558.783,406.761 C 558.221,406.573 560.206,404.188 563.194,401.460 Z" fill="#FFFFFF" stroke="none" />
  <path id="28" d="M 697.053,576.187 C 706.679,559.458 711.909,541.027 711.268,526.097 C 711.002,519.904 712.125,518.529 718.325,517.459 C 721.818,516.856 729.895,513.942 737.500,510.541 C 739.150,509.803 744.460,507.573 749.299,505.585 C 754.138,503.597 762.643,499.688 768.200,496.900 C 771.568,495.210 774.935,493.520 778.303,491.830 C 778.081,494.275 777.859,496.720 777.637,499.165 C 776.781,508.589 773.452,522.068 770.345,528.692 C 765.770,538.445 756.299,546.971 731,564.112 C 714.198,575.496 690.936,589.012 691.059,587.320 C 691.092,586.869 693.789,581.859 697.053,576.187 Z" fill="#FFFFFF" stroke="none" />
  <path id="28" d="M 699.133,264.500 C 699.847,253.216 700.825,247.227 702.080,246.451 C 702.549,246.161 704.249,248.531 705.858,251.718 C 714.999,269.827 731.617,283.535 752.840,290.474 C 755.777,291.434 757.802,292.542 757.340,292.936 C 756.878,293.330 751.550,296.945 745.500,300.968 C 739.450,304.991 731.008,310.932 726.739,314.170 C 718.372,320.517 715.411,322 711.102,322 C 708.465,322 708.186,321.518 705.169,311.750 C 699.617,293.776 698.054,281.544 699.133,264.500 Z" fill="#FFFFFF" stroke="none" />
  <path id="23" d="M 451,602 C 448.098,602 440,595.685 440,593.422 C 440,592.640 439.604,592 439.121,592 C 437.146,592 435.501,585.148 435.520,577 C 435.537,569.575 435.917,567.754 438.520,562.609 C 443.643,552.483 453.480,543.940 461.594,542.569 C 462.937,542.342 464.280,542.115 465.623,541.888 C 465.561,539.001 465.501,536.114 465.439,533.227 C 465.337,528.463 465.594,523.876 466.010,523.033 C 466.426,522.190 467.381,520.190 468.133,518.589 C 470.622,513.287 477.781,507.005 485.524,503.328 C 492.888,499.831 493.175,499.781 503.255,500.219 C 511.599,500.582 514.289,501.101 517.750,503.018 C 520.088,504.312 522,505.853 522,506.441 C 522,507.029 522.675,508.070 523.500,508.755 C 524,509.170 524.500,509.585 525,510 C 524.809,510.500 524.618,511 524.427,511.500 C 524.067,512.441 524.440,513 525.427,513 C 526.292,513 527,512.550 527,511 C 537.838,494.667 549.772,484.432 565.058,478.360 C 567.039,477.573 569.019,476.787 571,476 C 570.977,476.250 570.953,476.500 570.930,476.750 C 570.891,477.163 571.341,478.513 573,482 C 572.667,482.333 572.333,482.667 572,483 C 571.250,483.048 570.500,483.095 569.750,483.143 C 568.513,483.222 566.256,483.334 564.736,483.393 C 561.523,483.517 557.870,489 561,489 C 557.137,491.027 544.672,501.448 541.417,505.371 C 534.949,513.166 533.437,515.244 531.997,518.304 C 529.858,522.851 525.697,523.250 523.558,519.113 C 521.293,514.734 516.149,511.226 509.940,509.827 C 506.948,509.153 504.197,508.158 503.826,507.615 C 503.389,506.975 502.686,507.005 501.826,507.699 C 501.097,508.288 498.925,509.101 497,509.507 C 488.837,511.227 480.173,517.289 476.464,523.876 C 473.436,529.253 473.362,533.157 476.151,540.444 C 478.015,545.314 478.126,546.396 476.982,548.533 C 475.803,550.736 475.011,551.002 469.581,551.022 C 461.988,551.049 456.693,553.364 451.793,558.799 C 445.811,565.434 443.640,570.544 443.636,578 C 443.631,587.600 447.467,593.606 456.893,598.756 C 458.262,599.504 459.631,600.252 461,601 C 460.531,601.578 460.061,602.156 459.592,602.734 C 458.363,604.248 457.729,604.312 451,602 Z" fill="#171717" stroke="none" />
  <path id="21" d="M 637,535 C 626.348,557.443 615.620,568.595 596.163,577.452 C 595.051,577.958 593.938,578.465 592.826,578.971 C 593.991,580.070 595.157,581.168 596.322,582.267 C 604.157,589.657 604.917,606.600 598.041,620.568 C 593.970,628.837 585.708,637.229 578.185,640.737 C 570.966,644.103 559.941,644.640 552.786,641.975 C 551.215,641.390 549.643,640.805 548.072,640.220 C 547.395,641.618 546.718,643.016 546.041,644.414 C 540.099,656.688 525.870,662.908 510.799,659.819 C 504.440,658.515 497.992,653.399 495.111,647.372 C 493.830,644.692 492.381,641.938 491.891,641.250 C 491.594,640.833 491.297,640.417 491,640 C 490.667,639.333 490.333,638.667 490,638 C 490.583,637.002 491.167,636.004 491.750,635.006 C 492.712,633.359 493.752,632.009 494.061,632.006 C 495.712,631.987 499.114,636.457 498.688,638.085 C 498.029,640.605 503.235,648.553 506.728,650.359 C 511.484,652.818 516.747,653.327 523.224,651.952 C 531.006,650.301 537.197,644.821 538.984,638 C 540.882,630.755 542.640,629 548,629 C 549.333,629.667 550.667,630.333 552,631 C 553,631.667 554,632.333 555,633 C 556.333,633.333 557.667,633.667 559,634 C 559.667,634 560.333,634 561,634 C 563.333,634 565.667,634 568,634 C 569.618,633.377 571.235,632.753 572.853,632.130 C 586.238,626.973 595.251,609.285 592.079,594.402 C 591.387,591.156 590.637,587.150 590.411,585.500 C 589.669,580.073 589.281,579.699 585.100,580.368 C 582.286,580.818 580.892,580.574 579.979,579.474 C 578.959,578.245 579.031,577.591 582,574 C 582.333,573.667 582.667,573.333 583,573 C 584.750,572.503 586.500,572.007 588.250,571.510 C 591.138,570.690 595.188,568.890 601,565 C 601.333,564.667 601.667,564.333 602,564 C 603.667,563 605.333,562 607,561 C 614.362,554.394 619.116,549.331 622.314,545.488 C 625.512,541.645 628.774,537.938 629.564,537.250 C 630.043,536.833 630.521,536.417 631,536 C 633,535.667 635,535.333 637,535 Z" fill="#111111" stroke="none" />
  <path id="23" d="M 685,495 C 684,493.667 683,492.333 682,491 C 689.871,485.142 697.742,479.285 705.613,473.427 C 718.600,463.762 730.229,455.397 731.454,454.839 C 733.230,454.030 736.796,454.856 749.029,458.912 C 757.470,461.710 764.882,464 765.500,464 C 766.118,464 769.521,461.877 773.062,459.283 C 776.603,456.689 783.801,451.401 789.057,447.533 C 794.313,443.665 806.110,435.100 815.271,428.500 C 828.221,419.170 831.808,416.107 831.391,414.734 C 831.096,413.763 831.351,411.466 831.957,409.631 C 836.137,396.966 854.364,399.682 854.181,412.943 C 854.059,421.750 846.263,426.101 836.416,422.857 C 835.442,422.536 824.920,429.866 784.990,458.675 C 778.109,463.639 771.010,468.461 769.213,469.390 C 765.505,471.307 765.945,471.397 748,465.076 C 741.675,462.848 735.694,461.019 734.708,461.012 C 733.722,461.005 726.022,466.121 717.597,472.380 C 709.172,478.639 699.628,485.419 696.389,487.446 C 693.150,489.473 689.263,492.001 685,495 ZM 839.571,408.571 C 838.707,409.435 838,411.204 838,412.500 C 838,415.354 840.440,418 843.071,418 C 846.096,418 849.230,414.301 848.406,411.703 C 847.013,407.315 842.446,405.696 839.571,408.571 Z" fill="#171717" stroke="none" />
  <path id="23" d="M 763,437 C 764.798,437.379 766.597,437.757 768.395,438.136 C 770.193,438.515 771.991,438.892 773.789,439.271 C 776.712,437.147 779.636,435.024 782.559,432.900 C 788.970,428.242 791.005,426.255 790.126,425.514 C 787.192,423.039 785.008,418.249 785.004,414.285 C 784.997,406.765 792.909,400.497 800.500,402.010 C 802.771,402.463 804.229,402.021 806.500,400.190 C 815.151,393.217 832.610,380.885 834.501,380.410 C 835.695,380.110 841.133,380.964 846.586,382.307 C 849.891,383.121 853.195,383.934 856.500,384.748 C 858.267,383.580 860.034,382.411 861.801,381.243 C 866.490,378.142 867.034,377.431 866.516,375.074 C 865.597,370.889 868.615,365.270 873,363 C 873.476,363.500 873.953,364 874.429,364.500 C 875.698,365.833 876.033,365.825 877.429,364.429 C 878.858,363 879,363.039 879,364.859 C 879,366.004 878.144,367.105 875,368 C 874.498,368.799 873.996,369.599 873.494,370.398 C 872.387,372.162 872.255,373.352 874,377 C 874.750,377.973 875.500,378.946 876.250,379.919 C 877,380.892 877.750,381.865 878.500,382.838 C 875.667,382.892 872.833,382.946 870,383 C 867.982,384.464 865.965,385.929 863.947,387.393 C 857.896,391.784 856.451,392.085 851.500,389.985 C 849.444,389.113 845.502,388.356 838.500,387.489 C 834.716,387.021 833.810,387.508 809,406 C 807.667,406.333 806.333,406.667 805,407 C 803.710,406.995 802.419,406.990 801.129,406.985 C 795.912,406.965 793.013,409.487 792.321,414.644 C 791.571,420.238 794.439,423 801,423 C 801.417,423.153 801.833,423.305 802.250,423.458 C 802.938,423.710 804.589,423.147 805.921,422.208 C 806.728,421.639 807.536,421.069 808.343,420.500 C 807.734,421.250 807.125,422 806.516,422.750 C 805.450,424.064 805.171,425 807,425 C 806.052,425.667 805.103,426.333 804.155,427 C 802.590,428.100 800.559,429 799.641,429 C 798.723,429 795.439,431.064 792.343,433.585 C 789.247,436.106 784.416,439.679 781.607,441.523 C 779.905,442.641 778.202,443.758 776.500,444.876 C 772.667,443.917 768.833,442.959 765,442 C 764.333,440.333 763.667,438.667 763,437 Z" fill="#171717" stroke="none" />
  <path id="21" d="M 861.872,342.500 C 863.493,347.918 860.686,355.573 856.080,358.294 C 852.471,360.426 845.163,360.503 842.219,358.441 C 840.082,356.944 839.451,357.272 826.342,366.691 C 818.833,372.086 810.781,377.850 808.449,379.500 C 806.117,381.150 797.185,387.552 788.600,393.727 C 774.198,404.086 772.799,404.865 770.496,403.816 C 769.123,403.191 768.003,402.188 768.008,401.589 C 768.013,400.990 770.600,398.454 773.758,395.954 C 779.763,391.200 828.780,355.522 832.838,352.952 C 834.785,351.719 835.203,350.551 835.338,345.961 C 835.509,340.129 837.920,335.760 842.334,333.285 C 849.003,329.545 859.473,334.484 861.872,342.500 ZM 844,342 C 842.900,343.100 842,344.920 842,346.045 C 842,348.469 846.234,353 848.500,353 C 850.470,353 855,348.595 855,346.680 C 855,345.904 854.067,344.084 852.927,342.635 C 850.436,339.469 846.791,339.209 844,342 Z" fill="#111111" stroke="none" />
  <path id="28" d="M 605,454 C 612.296,452.020 619.593,450.039 626.889,448.059 C 628.048,450.466 629.207,452.872 630.366,455.279 C 633.372,461.522 643.965,479.898 648.508,486.750 C 649.005,487.500 649.503,488.250 650,489 C 650.205,489.750 650.411,490.500 650.616,491.250 C 650.821,492 651.027,492.750 651.232,493.500 C 650.115,492.750 648.997,492 647.880,491.250 C 646.036,490.013 643.739,489 642.773,489 C 641.807,489 640.455,488.100 639.768,487 C 637.841,483.914 635.638,484.414 636.466,487.750 C 636.841,489.263 637.540,490.642 638.018,490.815 C 638.496,490.988 638.634,491.792 638.323,492.602 C 638.012,493.412 638.421,494.845 639.232,495.787 C 641.344,498.240 644.111,504.222 643.442,504.891 C 642.791,505.542 637,499.190 637,497.825 C 637,497.328 635.312,495.217 633.250,493.134 C 631.188,491.051 629.519,488.706 629.542,487.923 C 629.565,487.140 628.215,484.700 626.542,482.500 C 624.869,480.300 621.883,475.800 619.907,472.500 C 617.931,469.200 615.993,466.787 615.601,467.139 C 614.851,467.811 617.562,473.782 622.802,483 C 624.521,486.025 627.407,491.425 629.214,495 C 631.021,498.575 632.950,501.872 633.500,502.326 C 634.147,502.860 634.058,503.302 632,504 C 623.028,493.130 611.814,473.522 607.504,461.173 C 606.669,458.782 605.835,456.391 605,454 Z" fill="#FFFFFF" stroke="none" />
  <path id="23" d="M 666,453 C 668.750,450.731 671.500,448.461 674.250,446.192 C 678.787,442.447 688.979,434.780 696.898,429.153 C 701.697,425.743 706.498,422.332 711.297,418.922 C 712.056,415.852 712.816,412.781 713.575,409.711 C 714.828,404.645 717.244,395.626 718.946,389.668 C 719.977,386.057 721.009,382.447 722.040,378.836 C 721.200,377.838 720.360,376.839 719.520,375.841 C 716.807,372.617 716.185,367.273 717.975,362.566 C 719.315,359.042 724.660,356.009 729.538,356.004 C 739.554,355.995 744.481,367.638 738,376 C 737.280,376.030 736.560,376.060 735.840,376.090 C 734.652,376.139 733.302,375.464 732,373 C 732.216,373 732.433,373 732.649,373 C 733.006,373 733.781,371.458 734.371,369.574 C 735.280,366.670 735.158,365.832 733.567,364.074 C 729.936,360.062 723,362.524 723,367.826 C 723,371.210 725.712,374 729,374 C 729,376 729,378 729,380 C 727.217,386.917 725.435,393.833 723.652,400.750 C 721.869,407.667 720.086,414.583 718.303,421.500 C 716.336,423.081 714.369,424.661 712.402,426.242 C 706.360,431.097 684.730,446.366 666,459 C 666,457 666,455 666,453 Z" fill="#171717" stroke="none" />
  <path id="65" d="M 650,489 C 655.367,494.812 656.941,496.965 656.962,497.534 C 656.983,498.103 659.475,501.013 662.500,504 C 665.525,506.987 668,510.156 668,511.041 C 668,511.926 665.518,515.927 662.485,519.931 C 660.647,522.358 658.808,524.783 656.970,527.210 C 656.058,526.620 655.147,526.030 654.235,525.440 C 650.316,522.903 647.702,520.495 639.377,511.750 C 636.918,509.167 634.459,506.583 632,504 C 634.058,503.302 634.147,502.860 633.500,502.326 C 632.950,501.872 631.021,498.575 629.214,495 C 627.407,491.425 624.521,486.025 622.802,483 C 617.562,473.782 614.851,467.811 615.601,467.139 C 615.993,466.787 617.931,469.200 619.907,472.500 C 621.883,475.800 624.869,480.300 626.542,482.500 C 628.215,484.700 629.565,487.140 629.542,487.923 C 629.519,488.706 631.188,491.051 633.250,493.134 C 635.312,495.217 637,497.328 637,497.825 C 637,499.190 642.791,505.542 643.442,504.891 C 644.111,504.222 641.344,498.240 639.232,495.787 C 638.421,494.845 638.012,493.412 638.323,492.602 C 638.634,491.792 638.496,490.988 638.018,490.815 C 637.540,490.642 636.841,489.263 636.466,487.750 C 635.638,484.414 637.841,483.914 639.768,487 C 640.455,488.100 641.807,489 642.773,489 C 643.739,489 646.036,490.013 647.880,491.250 C 648.997,492 650.115,492.750 651.232,493.500 C 651.027,492.750 650.821,492 650.616,491.250 C 650.411,490.500 650.205,489.750 650,489 ZM 654.500,503 C 653.675,503 653,503.675 653,504.500 C 653,505.325 653.675,506 654.500,506 C 655.325,506 656,505.325 656,504.500 C 656,503.675 655.325,503 654.500,503 Z" fill="#B9B9B9" stroke="none" />
  <path id="61" d="M 486,639 C 484.190,635.443 484.204,634.459 484.991,633.511 C 486.667,631.492 484.204,630.423 482.433,632.400 C 481.955,632.933 481.478,633.467 481,634 C 481,633 481,632 481,631 C 481,626.912 481.531,626.610 484.750,626.671 C 487.475,626.723 489.047,626.114 490.500,624.443 C 493.241,621.291 497.265,620.408 499.356,622.499 C 501.523,624.666 501.434,626.074 499.092,626.686 C 498.043,626.960 496.949,628.084 496.662,629.183 C 496.224,630.858 496.514,631.088 498.455,630.601 C 501.358,629.872 502.550,631.341 503.358,636.645 C 503.845,639.842 503.643,640.923 502.472,641.372 C 501.182,641.867 501.249,642.249 502.916,643.916 C 504.865,645.865 504.905,645.865 508.953,643.909 C 511.194,642.826 514.147,641.515 515.514,640.995 C 516.881,640.475 518,639.253 518,638.280 C 518,636.809 518.296,636.710 519.750,637.696 C 522.810,639.770 524.841,639.230 525.184,636.250 C 525.434,634.074 526.086,633.433 528.309,633.178 C 529.854,633.001 531.394,632.101 531.730,631.178 C 532.066,630.255 534.379,627.374 536.870,624.776 C 541.099,620.365 541.517,620.159 543.181,621.664 C 544.688,623.027 545.213,623.068 546.585,621.929 C 547.478,621.188 548.600,619.551 549.079,618.291 C 549.982,615.916 553.361,615.156 554.539,617.063 C 554.900,617.648 554.477,618.921 553.598,619.892 C 552.719,620.863 552,622.310 552,623.107 C 552,623.904 551.100,625.556 550,626.778 C 549.333,627.519 548.667,628.259 548,629 C 542.640,629 540.882,630.755 538.984,638 C 537.197,644.821 531.006,650.301 523.224,651.952 C 516.747,653.327 511.484,652.818 506.728,650.359 C 503.235,648.553 498.029,640.605 498.688,638.085 C 499.114,636.457 495.712,631.987 494.061,632.006 C 493.752,632.009 492.712,633.359 491.750,635.006 C 491.167,636.004 490.583,637.002 490,638 C 488.667,638.333 487.333,638.667 486,639 ZM 485.500,634 C 485.225,634 485,634.225 485,634.500 C 485,634.775 485.225,635 485.500,635 C 485.775,635 486,634.775 486,634.500 C 486,634.225 485.775,634 485.500,634 ZM 491,630 C 491.882,631.575 492.596,631.749 493.156,631.403 C 493.835,630.983 493.813,630.479 493.087,629.887 C 492.725,629.591 492.362,629.296 492,629 C 492.002,628.750 492.004,628.500 492.006,628.250 C 492.009,627.838 491.335,627.388 489,627 C 488.983,627.250 488.967,627.500 488.950,627.750 C 488.922,628.162 489.372,628.838 491,630 Z" fill="#C6C6C6" stroke="none" />
  <path id="23" d="M 777,377 C 776.333,376.667 775.667,376.333 775,376 C 775.660,375.619 776.319,375.238 776.979,374.857 C 778.067,374.228 779.611,372.716 780.410,371.497 C 781.209,370.278 785.220,366.753 789.325,363.664 C 791.813,361.792 794.300,359.920 796.788,358.048 C 797.014,355.290 797.239,352.532 797.464,349.774 C 797.836,345.223 798.801,337.236 799.608,332.024 C 801.188,321.823 802.053,320.314 809.133,315.408 C 812.653,312.969 813,312.324 813,308.224 C 813,304.288 813.441,303.359 820,298 C 820,298.250 820,298.500 820,298.750 C 820,299.163 820.900,299.388 824,299 C 824.628,298.805 825.255,298.609 825.883,298.414 C 829.032,297.434 833.708,300.584 835.024,304.572 C 838.337,314.611 828.830,324.055 819.898,319.599 C 816.713,318.010 816.641,318.030 811.516,321.900 C 809.793,323.201 808.068,324.503 806.345,325.804 C 805.871,330.253 805.397,334.703 804.923,339.152 C 804.140,346.493 803.596,353.175 803.712,354 C 803.828,354.825 803.471,356.850 802.918,358.500 C 801.633,362.337 787.127,372.690 777,377 ZM 820.200,304.200 C 817.320,307.080 819.625,314 823.464,314 C 826.639,314 829,311.496 829,308.129 C 829,304.702 827.341,303 824,303 C 822.570,303 820.860,303.540 820.200,304.200 Z" fill="#171717" stroke="none" />
  <path id="56" d="M 475,570 C 479.393,561.010 485.074,554.956 490.933,553.022 C 492.289,552.575 493.644,552.127 495,551.680 C 495,549.610 495,547.539 495,545.469 C 495,539.694 495.267,538.957 498.802,534.973 C 502.465,530.845 502.826,530.684 508.663,530.605 C 512.394,530.554 515.346,531.042 516.349,531.875 C 518.537,533.691 517.408,535.289 514.890,533.941 C 510.741,531.720 501.981,536.986 500.612,542.524 C 500.408,543.349 500.204,544.175 500,545 C 499.606,542.414 498.819,541.439 497.996,541.164 C 496.755,540.750 496.500,541.972 496.500,548.341 C 496.500,554.069 496.183,555.896 495.250,555.540 C 494.562,555.278 494,555.684 494,556.444 C 494,558.629 499.667,557.311 500.395,554.957 C 500.597,554.305 500.798,553.652 501,553 C 504.882,554.154 502.277,557.178 496.041,558.758 C 482.406,562.212 477.351,577.887 485.712,590.782 C 486.576,592.115 487.441,593.448 488.305,594.781 C 487.413,594.610 486.520,594.440 485.628,594.269 C 479.134,593.028 475.017,585.656 475.006,575.250 C 475.004,573.500 475.002,571.750 475,570 Z" fill="#707070" stroke="none" />
  <path id="23" d="M 647,448 C 645.667,447 644.333,446 643,445 C 647.750,441.394 652.500,437.787 657.250,434.181 C 665.088,428.231 674.425,421.403 678,419.007 C 685.542,413.952 685.965,413.456 685.985,409.644 C 685.993,408.073 686.701,404.081 687.559,400.772 C 689.091,394.860 689.079,394.713 686.862,392.353 C 685.093,390.470 684.593,388.741 684.552,384.349 C 684.507,379.582 684.835,378.542 689,376 C 689.333,377.667 689.667,379.333 690,381 C 689.843,381.503 689.685,382.006 689.528,382.509 C 688.707,385.133 690.820,388.917 693.478,389.584 C 694.880,389.936 696.695,389.723 699,388 C 699.401,388.532 699.802,389.065 700.203,389.597 C 701.175,390.887 701.075,391.378 699.682,392.158 C 698.734,392.689 698.192,393.545 699,395 C 698.435,395.112 697.869,395.225 697.304,395.337 C 696.371,395.523 695.305,396.760 694.934,398.087 C 693.854,401.952 692,412.435 692,414.679 C 692,416.885 677.103,427.915 647,448 Z" fill="#171717" stroke="none" />
  <path id="21" d="M 697.621,183.192 C 698.687,182.595 701.285,182.921 705.210,184.143 C 715.335,187.294 723.910,186.414 731.008,181.495 C 734.539,179.048 738,178.921 738,181.239 C 738,183.389 730.827,188.897 725.893,190.536 C 720.785,192.233 709.924,192.192 704.250,190.455 C 701.205,189.523 701.272,191.887 704.434,196.895 C 709.427,204.805 715.106,206.824 722.476,203.310 C 727.121,201.095 728.904,202.580 726.013,206.256 C 723.335,209.661 718.047,211.353 712.835,210.472 C 707.631,209.593 700.461,203.222 697.861,197.167 C 695.505,191.680 695.380,184.446 697.621,183.192 Z" fill="#111111" stroke="none" />
  <path id="61" d="M 581,594 C 582.933,590.268 582.480,589.060 579.394,584.856 C 575.690,579.811 575.680,579.771 576.930,574.895 C 578.314,569.496 578.927,569.033 580.763,572 C 581.175,572.667 581.588,573.333 582,574 C 579.031,577.591 578.959,578.245 579.979,579.474 C 580.892,580.574 582.286,580.818 585.100,580.368 C 589.281,579.699 589.669,580.073 590.411,585.500 C 590.637,587.150 591.387,591.156 592.079,594.402 C 595.251,609.285 586.238,626.973 572.853,632.130 C 571.235,632.753 569.618,633.377 568,634 C 566.923,628.745 567.356,627.365 569.247,625.118 C 570.604,623.505 571.997,620.420 572.342,618.262 C 572.687,616.104 573.877,613.517 574.985,612.514 C 576.093,611.511 576.996,609.747 576.991,608.595 C 576.986,607.443 577.886,604.588 578.991,602.250 C 579.661,600.833 580.330,599.417 581,598 C 581.500,598 582,598 582.500,598 C 583.333,598 584,597.111 584,596 C 584,594.889 583.333,594 581,594 ZM 587.739,602.188 C 586.539,601.957 586,602.496 586,603.927 C 586,605.358 586.642,606 588.073,606 C 590.636,606 590.346,602.690 587.739,602.188 Z" fill="#C6C6C6" stroke="none" />
  <path id="29" d="M 491,640 C 483.482,646.937 476.704,649.482 468.484,648.455 C 465.453,648.076 462.728,647.369 462.428,646.883 C 462.128,646.397 461.057,646 460.048,646 C 459.039,646 457.970,645.363 457.671,644.585 C 457.372,643.807 455.903,642.569 454.406,641.835 C 452.909,641.101 451.193,639.619 450.592,638.542 C 449.991,637.465 448.912,635.945 448.193,635.163 C 447.474,634.381 447.129,633.108 447.426,632.333 C 447.723,631.558 447.374,630.697 446.650,630.419 C 445.184,629.857 445.074,629.413 444.819,623 C 444.606,617.642 446.293,611.272 449.117,606.769 C 450.245,604.971 451.130,603.162 451.084,602.750 C 451.056,602.500 451.028,602.250 451,602 C 457.729,604.312 458.363,604.248 459.592,602.734 C 460.061,602.156 460.531,601.578 461,601 C 461.954,603.481 460.673,604.850 457.642,606.681 C 451.732,610.251 449,615.178 449,622.264 C 449,632.051 452.808,638.319 461.414,642.699 C 466.467,645.271 470.323,645.736 476.156,644.479 C 480.076,643.634 486,640.775 486,639.728 C 486,639.485 486,639.243 486,639 C 487.333,638.667 488.667,638.333 490,638 C 490.333,638.667 490.667,639.333 491,640 Z" fill="#393939" stroke="none" />
  <path id="65" d="M 914.303,341.164 C 916.135,339.643 927,323.458 927,322.250 C 927,321.733 927.903,320.492 929.007,319.493 C 930.111,318.494 931.737,316.287 932.619,314.588 C 935.248,309.527 939.480,300.998 943.454,292.751 C 945.508,288.489 947.565,284.770 948.025,284.485 C 950.790,282.776 949.349,292.343 945.841,298.985 C 944.829,300.902 944,303.046 944,303.749 C 944,304.452 943.578,305.809 943.062,306.764 C 942.546,307.719 940.569,311.650 938.668,315.500 C 932.832,327.318 930.652,331.046 927.262,335.007 C 925.468,337.103 924,339.269 924,339.820 C 924,341.655 917.762,346.108 915.622,345.801 C 913.113,345.441 912.357,342.779 914.303,341.164 ZM 921.500,334 C 920.675,334 920,334.675 920,335.500 C 920,336.325 920.675,337 921.500,337 C 922.325,337 923,336.325 923,335.500 C 923,334.675 922.325,334 921.500,334 ZM 924.500,330 C 923.675,330 923,330.675 923,331.500 C 923,332.325 923.675,333 924.500,333 C 925.325,333 926,332.325 926,331.500 C 926,330.675 925.325,330 924.500,330 ZM 930.500,320 C 929.675,320 929,320.675 929,321.500 C 929,322.333 929.889,323 931,323 C 932.111,323 933,322.333 933,321.500 C 933,320.675 933.450,320 934,320 C 934.550,320 935,319.325 935,318.500 C 935,317.675 934.325,317 933.500,317 C 932.675,317 932,317.675 932,318.500 C 932,319.325 931.325,320 930.500,320 Z" fill="#B9B9B9" stroke="none" />
  <path id="21" d="M 534,604 C 534,601.730 534.938,600.569 536.085,599.955 C 537.843,599.014 538.745,599.318 541.835,601.891 C 543.851,603.570 546.705,605.210 548.177,605.535 C 553.976,606.816 560.560,600.532 562.215,592.134 C 562.717,589.585 563.351,586.375 563.624,585 C 564.330,581.441 565.704,580.324 567.778,581.626 C 570.606,583.401 571.335,587.070 570.071,593.157 C 567.824,603.979 561.431,610.703 551.640,612.540 C 547.974,613.228 540.920,611.085 539.539,608.865 C 539.359,608.576 539.180,608.289 539,608 C 537.333,606.667 535.667,605.333 534,604 Z" fill="#111111" stroke="none" />
  <path id="56" d="M 544,548 C 553.300,537.674 556,534.350 556,533.952 C 556,533.554 558.475,530.589 561.501,527.364 C 564.527,524.139 566.551,521.388 566.001,521.250 C 565.667,521.167 565.334,521.083 565,521 C 567.210,518.679 568.515,518.260 569.325,518.571 C 570.135,518.882 571.125,518.607 571.524,517.961 C 571.975,517.231 572.487,517.158 572.875,517.767 C 573.251,518.358 574.404,518.410 575.773,517.898 C 577.757,517.156 577.888,516.793 576.798,515.048 C 575.765,513.394 574.853,513.152 571.525,513.645 C 570.183,513.844 568.842,514.042 567.500,514.241 C 568.250,513.534 569,512.827 569.750,512.120 C 570.500,511.413 571.250,510.707 572,510 C 570.751,512.191 571.458,512.185 574.549,511.197 C 578.200,510.031 578.690,510.107 581,512.217 C 581.833,512.978 582.667,513.739 583.500,514.500 C 581.062,516.833 578.624,519.167 576.186,521.500 C 572.163,525.350 566.426,531.312 563.436,534.750 C 561.624,536.833 559.812,538.917 558,541 C 558,538.675 558.377,538 558.839,538 C 559.301,538 560.211,536.763 560.861,535.250 C 561.255,534.333 561.650,533.417 562.044,532.500 C 560.910,533.344 559.775,534.188 558.641,535.032 C 554.631,538.015 550.261,545.346 552.237,545.776 C 552.934,545.928 554.516,545.140 555.752,544.026 C 556.501,543.351 557.251,542.675 558,542 C 555.667,544.333 553.333,546.667 551,549 C 548.768,545.779 546,544.995 546,547.583 C 546,548.454 545.550,548.904 545,548.583 C 544.667,548.389 544.333,548.194 544,548 Z" fill="#707070" stroke="none" />
  <path id="65" d="M 868.300,270.310 C 875.360,264.111 906.474,257.275 923.500,258.181 C 930.004,258.527 931.672,260.295 926,260.831 C 921.964,261.213 894.165,268.273 887.197,270.686 C 884.614,271.581 881.825,272.407 881,272.522 C 880.175,272.637 877.925,273.424 876,274.271 C 874.075,275.118 870.939,275.967 869.030,276.156 C 864.258,276.630 863.946,274.133 868.300,270.310 ZM 879.500,266 C 878.667,266 878,266.889 878,268 C 878,269.111 878.667,270 879.500,270 C 880.333,270 881,269.111 881,268 C 881,266.889 880.333,266 879.500,266 Z" fill="#B9B9B9" stroke="none" />
  <path id="21" d="M 694.660,128.673 C 699.079,124.381 709.298,118.840 716.932,116.596 C 723.817,114.572 734.315,114.470 735.926,116.411 C 737.371,118.153 736.696,118.576 731,119.498 C 722.254,120.914 711.268,125.031 703.044,129.974 C 698.466,132.726 694.011,135.094 693.146,135.238 C 690.140,135.738 690.935,132.291 694.660,128.673 Z" fill="#111111" stroke="none" />
  <path id="36" d="M 538,556 C 539.162,553.960 540.513,552.160 541.750,550.684 C 542.500,549.789 543.250,548.895 544,548 C 544.333,548.194 544.667,548.389 545,548.583 C 545.550,548.904 546,548.454 546,547.583 C 546,544.995 548.768,545.779 551,549 C 551.490,552.275 551.734,552.284 554.504,550.823 C 556.152,549.954 558.737,548.739 560.250,548.122 C 561.167,547.748 562.083,547.374 563,547 C 562.808,547.675 562.617,548.350 562.425,549.025 C 562.038,550.389 562.282,550.960 563.175,550.775 C 563.904,550.624 564.388,551.062 564,553 C 558.188,555.153 552.779,557.424 548.231,559.436 C 543.683,561.448 539.520,562.821 538.981,562.488 C 538.442,562.155 538,560.559 538,558.941 C 538,557.961 538,556.980 538,556 Z" fill="#2D2D2D" stroke="none" />
  <path id="36" d="M 565,521 C 560.203,521 558.266,518.906 559.849,515.432 C 563.557,507.294 583.286,491.698 593,489.227 C 593.825,489.017 595.287,488.656 596.250,488.423 C 596.833,488.282 597.417,488.141 598,488 C 598,489 598,490 598,491 C 596.450,490.134 596,490.554 596,491.374 C 596,492.194 595.060,493.163 593.911,493.528 C 590.776,494.523 578.949,502.841 575.250,506.652 C 574.167,507.768 573.083,508.884 572,510 C 571.250,510.707 570.500,511.413 569.750,512.120 C 569,512.827 568.250,513.534 567.500,514.241 C 568.842,514.042 570.183,513.844 571.525,513.645 C 574.853,513.152 575.765,513.394 576.798,515.048 C 577.888,516.793 577.757,517.156 575.773,517.898 C 574.404,518.410 573.251,518.358 572.875,517.767 C 572.487,517.158 571.975,517.231 571.524,517.961 C 571.125,518.607 570.135,518.882 569.325,518.571 C 568.515,518.260 567.210,518.679 565,521 Z" fill="#2D2D2D" stroke="none" />
  <path id="36" d="M 593,530 C 598.006,529.436 599.515,531.940 596.091,535.130 C 594.941,536.201 594,537.497 594,538.008 C 594,540.357 603.078,534.578 610.551,527.472 C 613.273,524.884 616.467,522.121 617.650,521.333 C 622.160,518.328 620.435,524.514 615.283,529.821 C 614.577,530.548 613.998,531.448 613.996,531.821 C 613.983,534.183 593.658,547.555 590.750,547.114 C 590.500,547.076 590.250,547.038 590,547 C 589.727,546.660 589.452,546.319 589.179,545.979 C 587.165,543.474 589.371,534.247 593,530 Z" fill="#2D2D2D" stroke="none" />
  <path id="59" d="M 563,547 C 572.044,541.963 578.232,538.628 582.585,536.340 C 586.938,534.052 591.062,531.689 591.750,531.090 C 592.167,530.727 592.583,530.363 593,530 C 589.371,534.247 587.165,543.474 589.179,545.979 C 589.452,546.319 589.727,546.660 590,547 C 587.767,545.337 586.975,543.649 586.799,542.177 C 586.488,539.575 586.422,539.550 584.404,541.257 C 583.262,542.223 578.204,545.261 573.164,548.007 C 570.109,549.671 567.055,551.336 564,553 C 564.388,551.062 563.904,550.624 563.175,550.775 C 562.282,550.960 562.038,550.389 562.425,549.025 C 562.617,548.350 562.808,547.675 563,547 Z" fill="#686868" stroke="none" />
  <path id="28" d="M 801,423 C 794.439,423 791.571,420.238 792.321,414.644 C 793.013,409.487 795.912,406.965 801.129,406.985 C 802.419,406.990 803.710,406.995 805,407 C 805,407.667 805,408.333 805,409 C 805,410.100 805.450,411 807,411 C 807.039,411.250 807.078,411.500 807.117,411.750 C 807.603,414.872 804.984,419.688 801,423 Z" fill="#FFFFFF" stroke="none" />
  <path id="29" d="M 699,395 C 698.192,393.545 698.734,392.689 699.682,392.158 C 701.075,391.378 701.175,390.887 700.203,389.597 C 699.802,389.065 699.401,388.532 699,388 C 699.338,380.570 697.442,377.975 692.996,379.782 C 691.997,380.188 690.999,380.594 690,381 C 689.667,379.333 689.333,377.667 689,376 C 691.903,373.581 695.475,373.547 699.500,375.900 C 703.315,378.130 704.966,381.388 704.985,386.720 C 704.998,390.299 704.544,391.248 702,392.970 C 701,393.647 700,394.323 699,395 Z" fill="#393939" stroke="none" />
  <path id="61" d="M 583,573 C 583.454,568.001 583.986,567.500 586.164,567.500 C 587.629,567.500 589.908,566.487 591.228,565.250 C 592.548,564.013 594.370,563 595.276,563 C 596.182,563 599.006,560.975 601.553,558.500 C 604.100,556.025 606.564,554 607.029,554 C 607.494,554 607.677,555.575 607.437,557.500 C 607.291,558.667 607.146,559.833 607,561 C 605.333,562 603.667,563 602,564 C 602.002,563.750 602.004,563.500 602.006,563.250 C 602.009,562.838 601.334,562.355 600.506,562.177 C 599.666,561.997 599,562.549 599,563.427 C 599,564.292 599.450,565 601,565 C 595.188,568.890 591.138,570.690 588.250,571.510 C 586.500,572.007 584.750,572.503 583,573 Z" fill="#C6C6C6" stroke="none" />
  <path id="21" d="M 693.669,162 C 696.475,157.965 698.263,156.994 702.400,157.254 C 706.460,157.510 709.102,159.960 710.487,164.755 C 711.493,168.239 708.428,168.813 705.911,165.613 C 702.758,161.605 700.262,162.221 697.968,167.574 C 696.553,170.876 695.520,172.056 694.254,171.816 C 691.785,171.348 691.420,165.233 693.669,162 Z" fill="#111111" stroke="none" />
  <path id="36" d="M 737,436 C 737.333,435.333 737.667,434.667 738,434 C 746.333,435 754.667,436 763,437 C 763.667,438.667 764.333,440.333 765,442 C 757.638,441.104 754.825,440.703 754,440.531 C 753.175,440.359 749.013,439.490 744.750,438.600 C 740.487,437.710 737,436.761 737,436.491 C 737,436.327 737,436.164 737,436 Z" fill="#2D2D2D" stroke="none" />
  <path id="29" d="M 703,522 C 693.479,525.805 691.940,526.217 689.508,525.618 C 688.672,525.412 687.836,525.206 687,525 C 693.898,523.340 693.975,523.217 693.003,520.157 C 692.669,519.105 692.334,518.052 692,517 C 692.667,517 693.333,517 694,517 C 694,517.667 694,518.333 694,519 C 694,520.333 694.667,521 696,521 C 697.333,521 698,520.333 698,519 C 698,517.900 697.550,517 696,517 C 701.037,515.062 702.725,514.239 703,513.920 C 703.645,513.172 709.269,510.860 710.250,510.939 C 710.500,510.959 710.750,510.980 711,511 C 708.675,512.627 708,513.714 708,514.466 C 708,515.218 706.629,516.432 704.954,517.166 C 702.765,518.125 702.062,518.992 702.454,520.250 C 702.636,520.833 702.818,521.417 703,522 Z" fill="#393939" stroke="none" />
  <path id="28" d="M 844,342 C 846.791,339.209 850.436,339.469 852.927,342.635 C 854.067,344.084 855,345.904 855,346.680 C 855,348.595 850.470,353 848.500,353 C 846.234,353 842,348.469 842,346.045 C 842,344.920 842.900,343.100 844,342 Z" fill="#FFFFFF" stroke="none" />
  <path id="29" d="M 571,476 C 576.415,472.949 593.117,470.764 594.457,472.931 C 595.288,474.276 593.644,475.092 582.750,478.737 C 579.500,479.825 576.250,480.912 573,482 C 571.341,478.513 570.891,477.163 570.930,476.750 C 570.953,476.500 570.977,476.250 571,476 Z" fill="#393939" stroke="none" />
  <path id="29" d="M 527,610 C 529.333,608 531.667,606 534,604 C 535.667,605.333 537.333,606.667 539,608 C 536.832,609.938 535.258,611.287 534.102,612.250 C 533.401,612.833 532.701,613.417 532,614 C 531.583,614.126 531.167,614.253 530.750,614.379 C 530.062,614.588 527.989,614.586 526.143,614.376 C 525.024,614.248 523.905,614.120 522.786,613.993 C 524.190,612.662 525.596,611.331 527,610 Z" fill="#393939" stroke="none" />
  <path id="21" d="M 726.670,155 C 727.601,152.505 730.205,151 733.588,151 C 739.309,151 745.915,160.944 741.357,162.693 C 740.240,163.122 738.815,162.232 736.908,159.912 C 734.565,157.062 733.806,156.682 732.301,157.607 C 731.310,158.216 730.270,160.016 729.990,161.607 C 729.195,166.121 726.540,165.323 726.305,160.500 C 726.198,158.300 726.362,155.825 726.670,155 Z" fill="#111111" stroke="none" />
  <path id="36" d="M 653,467 C 652,466.333 651,465.667 650,465 C 655.333,461 660.667,457 666,453 C 666,455 666,457 666,459 C 661.667,461.667 657.333,464.333 653,467 Z" fill="#2D2D2D" stroke="none" />
  <path id="64" d="M 870,383 C 872.833,382.946 875.667,382.892 878.500,382.838 C 877.750,381.865 877,380.892 876.250,379.919 C 875.500,378.946 874.750,377.973 874,377 C 880.064,380.135 885.532,376.857 882.877,371.678 C 881.906,369.784 878.009,367.736 875.750,367.934 C 875.500,367.956 875.250,367.978 875,368 C 878.144,367.105 879,366.004 879,364.859 C 879,363.039 878.858,363 877.429,364.429 C 876.033,365.825 875.698,365.833 874.429,364.500 C 873.953,364 873.476,363.500 873,363 C 883.094,361.718 886.059,363.206 887.889,370.473 C 890.427,380.552 882.484,387.625 872.699,384 C 871.799,383.667 870.900,383.333 870,383 Z" fill="#979493" stroke="none" />
  <path id="36" d="M 807,425 C 805.171,425 805.450,424.064 806.516,422.750 C 807.125,422 807.734,421.250 808.343,420.500 C 807.536,421.069 806.728,421.639 805.921,422.208 C 804.589,423.147 802.938,423.710 802.250,423.458 C 801.833,423.305 801.417,423.153 801,423 C 804.984,419.688 807.603,414.872 807.117,411.750 C 807.078,411.500 807.039,411.250 807,411 C 808,411 809,411 810,411 C 812.312,414.930 812.171,418.469 809.573,421.750 C 808.715,422.833 807.858,423.917 807,425 Z" fill="#2D2D2D" stroke="none" />
  <path id="28" d="M 729,374 C 725.712,374 723,371.210 723,367.826 C 723,362.524 729.936,360.062 733.567,364.074 C 735.158,365.832 735.280,366.670 734.371,369.574 C 733.781,371.458 733.006,373 732.649,373 C 732.433,373 732.216,373 732,373 C 731,373.333 730,373.667 729,374 Z" fill="#FFFFFF" stroke="none" />
  <path id="56" d="M 510,606 C 511.550,605.134 512,605.501 512,606.257 C 512,607.013 513.791,608.638 515.980,609.868 C 519.376,611.777 520.476,611.951 523.480,611.053 C 524.653,610.702 525.827,610.351 527,610 C 525.596,611.331 524.190,612.662 522.786,613.993 C 523.905,614.120 525.024,614.248 526.143,614.376 C 527.989,614.586 530.062,614.588 530.750,614.379 C 531.167,614.253 531.583,614.126 532,614 C 524.399,617.230 522.759,617.404 520,616.631 C 515.738,615.437 511.091,611.367 510.463,608.278 C 510.309,607.519 510.154,606.759 510,606 Z" fill="#707070" stroke="none" />
  <path id="66" d="M 481,634 C 478.094,636.131 477.049,637.352 476.804,638.088 C 476.519,638.942 474.424,639.506 471.009,639.648 C 469.226,639.722 467.442,639.798 465.659,639.872 C 465.966,639.009 466.273,638.145 466.580,637.282 C 467.376,635.043 467.946,634.759 470.803,635.181 C 473.305,635.551 474.343,635.226 475.082,633.846 C 475.619,632.843 477.170,631.793 478.529,631.512 C 479.353,631.341 480.176,631.171 481,631 C 481,632 481,633 481,634 Z" fill="#B0AEAD" stroke="none" />
  <path id="29" d="M 629,420 C 632.585,416.449 633.937,414.606 634.318,413.614 C 634.699,412.622 635.908,411.575 637.005,411.288 C 638.102,411.001 639,410.223 639,409.559 C 639,408.895 642.150,405.571 646,402.175 C 648.333,400.117 650.667,398.058 653,396 C 641.763,410.181 637.263,415.356 635.750,416.649 C 634.833,417.433 633.917,418.216 633,419 C 632,419.333 631,419.667 630,420 C 629.667,420 629.333,420 629,420 Z" fill="#393939" stroke="none" />
  <path id="29" d="M 500,545 C 500.333,547.667 500.667,550.333 501,553 C 500.798,553.652 500.597,554.305 500.395,554.957 C 499.667,557.311 494,558.629 494,556.444 C 494,555.684 494.562,555.278 495.250,555.540 C 496.183,555.896 496.500,554.069 496.500,548.341 C 496.500,541.972 496.755,540.750 497.996,541.164 C 498.819,541.439 499.606,542.414 500,545 Z" fill="#393939" stroke="none" />
  <path id="28" d="M 839.571,408.571 C 842.446,405.696 847.013,407.315 848.406,411.703 C 849.230,414.301 846.096,418 843.071,418 C 840.440,418 838,415.354 838,412.500 C 838,411.204 838.707,409.435 839.571,408.571 Z" fill="#FFFFFF" stroke="none" />
  <path id="28" d="M 820.200,304.200 C 820.860,303.540 822.570,303 824,303 C 827.341,303 829,304.702 829,308.129 C 829,311.496 826.639,314 823.464,314 C 819.625,314 817.320,307.080 820.200,304.200 Z" fill="#FFFFFF" stroke="none" />
  <path id="28" d="M 699,388 C 696.695,389.723 694.880,389.936 693.478,389.584 C 690.820,388.917 688.707,385.133 689.528,382.509 C 689.685,382.006 689.843,381.503 690,381 C 690.999,380.594 691.997,380.188 692.996,379.782 C 697.442,377.975 699.338,380.570 699,388 Z" fill="#FFFFFF" stroke="none" />
  <path id="29" d="M 676,501 C 675.333,500 674.667,499 674,498 C 676.667,495.667 679.333,493.333 682,491 C 683,492.333 684,493.667 685,495 C 682,497 679,499 676,501 Z" fill="#393939" stroke="none" />
  <path id="28" d="M 874,377 C 872.255,373.352 872.387,372.162 873.494,370.398 C 873.996,369.599 874.498,368.799 875,368 C 875.250,367.978 875.500,367.956 875.750,367.934 C 878.009,367.736 881.906,369.784 882.877,371.678 C 885.532,376.857 880.064,380.135 874,377 Z" fill="#FFFFFF" stroke="none" />
  <path id="61" d="M 552,631 C 555.875,623.970 557,621.072 557,620.024 C 557,617.668 558.817,616.417 560.213,617.813 C 561.164,618.764 558.291,627.828 555.795,631.750 C 555.530,632.167 555.265,632.583 555,633 C 554,632.333 553,631.667 552,631 Z" fill="#C6C6C6" stroke="none" />
  <path id="29" d="M 732,373 C 733.302,375.464 734.652,376.139 735.840,376.090 C 736.560,376.060 737.280,376.030 738,376 C 734.728,379.100 732.703,380 731.389,380 C 730.593,380 729.796,380 729,380 C 729,378 729,376 729,374 C 730,373.667 731,373.333 732,373 Z" fill="#393939" stroke="none" />
  <path id="36" d="M 558,541 C 558,541.333 558,541.667 558,542 C 557.251,542.675 556.501,543.351 555.752,544.026 C 554.516,545.140 552.934,545.928 552.237,545.776 C 550.261,545.346 554.631,538.015 558.641,535.032 C 559.775,534.188 560.910,533.344 562.044,532.500 C 561.650,533.417 561.255,534.333 560.861,535.250 C 560.211,536.763 559.301,538 558.839,538 C 558.377,538 558,538.675 558,541 Z" fill="#2D2D2D" stroke="none" />
  <path id="29" d="M 572,483 C 568.333,485 564.667,487 561,489 C 557.870,489 561.523,483.517 564.736,483.393 C 566.256,483.334 568.513,483.222 569.750,483.143 C 570.500,483.095 571.250,483.048 572,483 Z" fill="#393939" stroke="none" />
  <path id="79" d="M 805,407 C 806.333,406.667 807.667,406.333 809,406 C 809.333,407.667 809.667,409.333 810,411 C 809,411 808,411 807,411 C 805.450,411 805,410.100 805,409 C 805,408.333 805,407.667 805,407 Z" fill="#908E8F" stroke="none" />
  <path id="61" d="M 559,634 C 559.292,629.845 560.683,626.526 563.750,622.673 C 566.351,619.406 566.733,621.105 564.385,625.500 C 563.504,627.150 562.381,629.737 561.891,631.250 C 561.594,632.167 561.297,633.083 561,634 C 560.333,634 559.667,634 559,634 Z" fill="#C6C6C6" stroke="none" />
  <path id="84" d="M 930.500,320 C 931.325,320 932,319.325 932,318.500 C 932,317.675 932.675,317 933.500,317 C 934.325,317 935,317.675 935,318.500 C 935,319.325 934.550,320 934,320 C 933.450,320 933,320.675 933,321.500 C 933,322.333 932.111,323 931,323 C 929.889,323 929,322.333 929,321.500 C 929,320.675 929.675,320 930.500,320 Z" fill="#6F6E6D" stroke="none" />
  <path id="74" d="M 631,536 C 631,533.540 632.350,532.317 634,531.694 C 636.772,530.648 637,530.730 637,532.781 C 637,533.521 637,534.260 637,535 C 635,535.333 633,535.667 631,536 Z" fill="#6A6A6A" stroke="none" />
  <path id="76" d="M 694,517 C 694.667,517 695.333,517 696,517 C 697.550,517 698,517.900 698,519 C 698,520.333 697.333,521 696,521 C 694.667,521 694,520.333 694,519 C 694,518.333 694,517.667 694,517 Z" fill="#8A8887" stroke="none" />
  <path id="29" d="M 628,425 C 626.342,425 626.004,424.097 626.180,422.993 C 626.356,421.889 626.838,420.989 627.250,420.993 C 627.500,420.995 627.750,420.998 628,421 C 628.667,421 629.333,421 630,421 C 630,421.333 630,421.667 630,422 C 629.333,423 628.667,424 628,425 Z" fill="#393939" stroke="none" />
  <path id="71" d="M 598,488 C 602.707,486.954 603.113,487.181 602.828,488.675 C 602.634,489.690 601.486,490.611 600.240,490.750 C 599.493,490.833 598.747,490.917 598,491 C 598,490 598,489 598,488 Z" fill="#9C9A9B" stroke="none" />
  <path id="69" d="M 581,598 C 581,596.667 581,595.333 581,594 C 583.333,594 584,594.889 584,596 C 584,597.111 583.333,598 582.500,598 C 582,598 581.500,598 581,598 Z" fill="#696868" stroke="none" />
  <path id="77" d="M 714,108 C 716.535,107.031 717,107.496 717,108.927 C 717,110.103 716.351,111 715.500,111 C 715,111 714.500,111 714,111 C 714,110 714,109 714,108 Z" fill="#757474" stroke="none" />
  <path id="81" d="M 879.500,266 C 880.333,266 881,266.889 881,268 C 881,269.111 880.333,270 879.500,270 C 878.667,270 878,269.111 878,268 C 878,266.889 878.667,266 879.500,266 Z" fill="#6C6C6B" stroke="none" />
  <path id="78" d="M 775,376 C 775.667,376.333 776.333,376.667 777,377 C 777,378.550 776.325,379 775.500,379 C 774.675,379 774,378.325 774,377.500 C 774,377 774,376.500 774,376 C 774.333,376 774.667,376 775,376 Z" fill="#989897" stroke="none" />
  <path id="73" d="M 630,421 C 630,420.667 630,420.333 630,420 C 631,419.667 632,419.333 633,419 C 633,421.325 632.325,422 631.500,422 C 631,422 630.500,422 630,422 C 630,421.667 630,421.333 630,421 Z" fill="#969493" stroke="none" />
  <path id="72" d="M 602,564 C 601.667,564.333 601.333,564.667 601,565 C 599.450,565 599,564.292 599,563.427 C 599,562.549 599.666,561.997 600.506,562.177 C 601.334,562.355 602.009,562.838 602.006,563.250 C 602.004,563.500 602.002,563.750 602,564 Z" fill="#797878" stroke="none" />
  <path id="83" d="M 924.500,330 C 925.325,330 926,330.675 926,331.500 C 926,332.325 925.325,333 924.500,333 C 923.675,333 923,332.325 923,331.500 C 923,330.675 923.675,330 924.500,330 Z" fill="#676666" stroke="none" />
  <path id="82" d="M 921.500,334 C 922.325,334 923,334.675 923,335.500 C 923,336.325 922.325,337 921.500,337 C 920.675,337 920,336.325 920,335.500 C 920,334.675 920.675,334 921.500,334 Z" fill="#6A6867" stroke="none" />
  <path id="75" d="M 654.500,503 C 655.325,503 656,503.675 656,504.500 C 656,505.325 655.325,506 654.500,506 C 653.675,506 653,505.325 653,504.500 C 653,503.675 653.675,503 654.500,503 Z" fill="#706D6D" stroke="none" />
  <path id="67" d="M 492,629 C 491.667,629.333 491.333,629.667 491,630 C 489.372,628.838 488.922,628.162 488.950,627.750 C 488.967,627.500 488.983,627.250 489,627 C 491.335,627.388 492.009,627.838 492.006,628.250 C 492.004,628.500 492.002,628.750 492,629 Z" fill="#777674" stroke="none" />
  <path id="68" d="M 525,510 C 525.667,510.333 526.333,510.667 527,511 C 527,512.550 526.292,513 525.427,513 C 524.440,513 524.067,512.441 524.427,511.500 C 524.618,511 524.809,510.500 525,510 Z" fill="#757475" stroke="none" />
  <path id="70" d="M 587.739,602.188 C 590.346,602.690 590.636,606 588.073,606 C 586.642,606 586,605.358 586,603.927 C 586,602.496 586.539,601.957 587.739,602.188 Z" fill="#7E7D7E" stroke="none" />
  <path id="80" d="M 824,299 C 820.900,299.388 820,299.163 820,298.750 C 820,298.500 820,298.250 820,298 C 823.100,297.612 824,297.837 824,298.250 C 824,298.500 824,298.750 824,299 Z" fill="#737272" stroke="none" />
  <path id="21" d="M 713,108 C 713.333,108 713.667,108 714,108 C 714,109 714,110 714,111 C 713.667,111 713.333,111 713,111 C 713,110 713,109 713,108 Z" fill="#111111" stroke="none" />
  <path id="29" d="M 492,629 C 492.362,629.296 492.725,629.591 493.087,629.887 C 493.813,630.479 493.835,630.983 493.156,631.403 C 492.596,631.749 491.882,631.575 491,630 C 491.333,629.667 491.667,629.333 492,629 Z" fill="#393939" stroke="none" />
  <path id="28" d="M 628,421 C 628.333,420.667 628.667,420.333 629,420 C 629.333,420 629.667,420 630,420 C 630,420.333 630,420.667 630,421 C 629.333,421 628.667,421 628,421 Z" fill="#FFFFFF" stroke="none" />
  <path id="29" d="M 485.500,634 C 485.775,634 486,634.225 486,634.500 C 486,634.775 485.775,635 485.500,635 C 485.225,635 485,634.775 485,634.500 C 485,634.225 485.225,634 485.500,634 Z" fill="#393939" stroke="none" />
</svg>
